<?xml version="1.0" encoding="utf-8"?>
<!-- Generator: Adobe Illustrator 24.0.0, SVG Export Plug-In . SVG Version: 6.00 Build 0)  -->
<svg version="1.1" id="Layer_1" xmlns="http://www.w3.org/2000/svg" xmlns:xlink="http://www.w3.org/1999/xlink" x="0px" y="0px"
	 viewBox="0 0 48 48" style="enable-background:new 0 0 48 48;" xml:space="preserve">
<style type="text/css">
	.st0{fill:#FACA0F;}
	.st1{clip-path:url(#SVGID_2_);}
	.st2{fill:#0C613A;}
	.st3{fill:#C72326;}
	.st4{fill:#F8C40F;}
	.st5{fill:#FFFFFF;}
</style>
<g>
	<g>
		<g>
			<circle class="st0" cx="24.3" cy="23.6" r="21.1"/>
		</g>
		<g>
			<g>
				<defs>
					<circle id="SVGID_1_" cx="24.3" cy="23.6" r="12"/>
				</defs>
				<clipPath id="SVGID_2_">
					<use xlink:href="#SVGID_1_"  style="overflow:visible;"/>
				</clipPath>
				<g class="st1">
					<g>
						<g>
							<path class="st2" d="M43.5,19.3c0,2.8,0,5.7,0,8.5c-0.1,0-0.1,0-0.2,0c-0.6,0-1.3,0-1.9,0c-10.1,0-20.3,0-30.4,0
								c-1.2,0-2.4,0-3.6,0c-0.7,0-1.5,0-2.2,0c0-0.1,0-0.1,0-0.2c0-2.7,0-5.5,0-8.2c0-0.1,0-0.2,0.2-0.2c1.5,0,3,0,4.4,0
								c10.1,0,20.3,0,30.4,0C41.3,19.3,42.4,19.3,43.5,19.3z"/>
							<path class="st3" d="M5.2,27.8c0.7,0,1.5,0,2.2,0c1.2,0,2.4,0,3.6,0c10.1,0,20.3,0,30.4,0c0.6,0,1.3,0,1.9,0
								c0.1,0,0.1,0,0.2,0c0,2.7,0,5.3,0,8c-0.1,0-0.1,0-0.2,0c-12.6,0-25.3,0-37.9,0c-0.2,0-0.2,0-0.2-0.2c0-2.5,0-5.1,0-7.6
								C5.2,27.9,5.2,27.9,5.2,27.8z"/>
							<path class="st4" d="M5.2,27.8c0,0,0,0.1,0,0.1c0,2.5,0,5.1,0,7.6c0,0.2,0,0.2,0.2,0.2c12.6,0,25.3,0,37.9,0
								c0.1,0,0.1,0,0.2,0c0,0,0,0,0,0c0,0-0.1,0-0.1,0c-12.7,0-25.4,0-38,0c-0.1,0-0.1,0-0.1-0.1c0-8.1,0-16.1,0-24.2
								c0-0.1,0-0.1,0.1-0.1c12.7,0,25.4,0,38,0c0.1,0,0.1,0,0.1,0.1c0,2.6,0,5.2,0,7.8c-1.1,0-2.2,0-3.2,0c-10.1,0-20.3,0-30.4,0
								c-1.5,0-3,0-4.4,0c-0.1,0-0.2,0-0.2,0.2c0,2.7,0,5.5,0,8.2C5.2,27.7,5.2,27.8,5.2,27.8z"/>
						</g>
					</g>
				</g>
			</g>
		</g>
	</g>
	<g>
		<path class="st5" d="M24.3,36.5c-7.1,0-12.9-5.8-12.9-12.9s5.8-12.9,12.9-12.9s12.9,5.8,12.9,12.9C37.2,30.7,31.4,36.5,24.3,36.5z
			 M24.3,12.5c-6.1,0-11.1,5-11.1,11.1s5,11.1,11.1,11.1s11.1-5,11.1-11.1S30.4,12.5,24.3,12.5z"/>
	</g>
</g>
</svg>
