<?xml version="1.0" encoding="utf-8"?>
<!-- Generator: Adobe Illustrator 24.0.0, SVG Export Plug-In . SVG Version: 6.00 Build 0)  -->
<svg version="1.1" id="Layer_1" xmlns="http://www.w3.org/2000/svg" xmlns:xlink="http://www.w3.org/1999/xlink" x="0px" y="0px"
	 viewBox="0 0 48 48" style="enable-background:new 0 0 48 48;" xml:space="preserve">
<style type="text/css">
	.st0{fill:#FACA0F;}
	.st1{fill:#FFFFFF;}
</style>
<g>
	<g>
		<circle class="st0" cx="24.3" cy="23.6" r="21.1"/>
	</g>
	<g>
		<path class="st1" d="M24.1,10.7c-7.1,0-12.9,5.8-12.9,12.9c0,6.4,4.7,11.7,10.8,12.7v-10h-3.1v-3.6h3.1v-2.7
			c0-3.1,1.9-4.8,4.6-4.8c1.3,0,2.5,0.1,2.8,0.1v3.2l-1.9,0c-1.5,0-1.8,0.7-1.8,1.8v2.3h3.6l-0.5,3.6h-3.1v10.1
			C32,35.7,37,30.2,37,23.6C37,16.5,31.2,10.7,24.1,10.7z"/>
	</g>
</g>
</svg>
