<?xml version="1.0" encoding="utf-8"?>
<!-- Generator: Adobe Illustrator 24.0.0, SVG Export Plug-In . SVG Version: 6.00 Build 0)  -->
<svg version="1.1" id="Layer_1" xmlns="http://www.w3.org/2000/svg" xmlns:xlink="http://www.w3.org/1999/xlink" x="0px" y="0px"
	 viewBox="0 0 48 48" style="enable-background:new 0 0 48 48;" xml:space="preserve">
<style type="text/css">
	.st0{fill:#FACA0F;}
	.st1{clip-path:url(#SVGID_2_);}
	.st2{fill:#C7102E;}
	.st3{fill:#FEFDFD;}
	.st4{fill:#022169;}
	.st5{fill:#FFFFFF;}
</style>
<g>
	<g>
		<g>
			<circle class="st0" cx="24.3" cy="23.6" r="21.1"/>
		</g>
		<g>
			<g>
				<defs>
					<circle id="SVGID_1_" cx="24.1" cy="23.9" r="12"/>
				</defs>
				<clipPath id="SVGID_2_">
					<use xlink:href="#SVGID_1_"  style="overflow:visible;"/>
				</clipPath>
				<g transform="matrix(1 0 0 1 0 9.536743e-07)" class="st1">
					<g>
						<g>
							<path class="st2" d="M26.5,35.7c-1.6,0-3.2,0-4.8,0c0-3.1,0-6.3,0-9.4c0-0.2,0-0.2-0.2-0.2c-7.1,0-14.3,0-21.4,0
								c0-1.6,0-3.2,0-4.8c7.1,0,14.3,0,21.4,0c0.2,0,0.2,0,0.2-0.2c0-3.1,0-6.1,0-9.2c0-0.2,0.1-0.2,0.2-0.2c1.5,0,2.9,0,4.4,0
								c0.2,0,0.2,0,0.2,0.2c0,3.1,0,6.1,0,9.2c0,0.2,0.1,0.3,0.3,0.3c7.1,0,14.1,0,21.2,0c0.2,0,0.2,0.1,0.2,0.2c0,1.4,0,2.9,0,4.3
								c0,0.2,0,0.3-0.2,0.3c-7.1,0-14.1,0-21.2,0c-0.2,0-0.2,0-0.2,0.2C26.5,29.5,26.5,32.6,26.5,35.7z"/>
							<path class="st3" d="M26.5,35.7c0-3.1,0-6.3,0-9.4c0-0.2,0-0.2,0.2-0.2c7.1,0,14.1,0,21.2,0c0.2,0,0.2-0.1,0.2-0.3
								c0-1.4,0-2.9,0-4.3c0-0.2,0-0.2-0.2-0.2c-7.1,0-14.1,0-21.2,0c-0.2,0-0.3,0-0.3-0.3c0-3.1,0-6.1,0-9.2c0-0.2-0.1-0.2-0.2-0.2
								c-1.5,0-2.9,0-4.4,0c-0.2,0-0.2,0-0.2,0.2c0,3.1,0,6.1,0,9.2c0,0.2,0,0.2-0.2,0.2c-7.1,0-14.3,0-21.4,0c0-0.5,0-1.1,0-1.6
								c3.5,0,7.1,0,10.6,0c0,0-0.1-0.1-0.1-0.1C7,17.9,3.6,16.2,0.1,14.4c0,0-0.1-0.1-0.2,0c0-0.3,0-0.6,0-0.9
								c0.1,0,0.1,0.1,0.2,0.1c4,2,8,4,12.1,6c0.1,0.1,0.3,0.1,0.4,0.1c1,0,2.1,0,3.1,0c0.1,0,0.1,0,0.2,0c0,0,0,0,0,0
								c-5.3-2.7-10.7-5.3-16-8c0,0,0,0,0,0c0.1,0,0.1,0,0.2,0c15.9,0,31.9,0,47.8,0c0.2,0,0.2,0,0.2,0.2c0,7.9,0,15.8,0,23.7
								c0,0.1,0,0.1,0,0.2c0-0.5,0-1.1,0-1.6c0-0.1,0-0.2-0.2-0.3c-4.1-2-8.1-4-12.2-6.1c-0.1,0-0.2-0.1-0.3-0.1c-1.1,0-2.1,0-3.2,0
								c-0.1,0-0.1,0-0.2,0c0.1,0.1,0.2,0.1,0.2,0.1c5.2,2.6,10.4,5.2,15.6,7.8c0.1,0,0.1,0,0.2,0.1c-1.8,0-3.6,0-5.4,0
								c-0.1,0-0.1-0.1-0.2-0.1c-4.8-2.4-9.5-4.8-14.3-7.1c-0.1,0-0.1-0.1-0.2-0.1c0,2.5,0,4.9,0,7.3C27.5,35.7,27,35.7,26.5,35.7z
								 M28.1,19c4.9-2.4,9.8-4.9,14.7-7.3c-0.1,0-0.1,0-0.1,0c-4.8,0-9.6,0-14.4,0c-0.2,0-0.2,0.1-0.2,0.2c0,2,0,4.1,0,6.1
								C28.1,18.3,28.1,18.6,28.1,19z M5.4,11.7C5.4,11.7,5.4,11.7,5.4,11.7c4.9,2.5,9.7,4.9,14.6,7.3c0-0.1,0-0.2,0-0.2
								c0-2.3,0-4.6,0-6.9c0-0.2-0.1-0.2-0.2-0.2c-4.7,0-9.5,0-14.2,0C5.6,11.7,5.5,11.7,5.4,11.7z M48.1,11.7c-0.1,0-0.1,0-0.1,0
								c-1.1,0-2.2,0-3.3,0c-0.1,0-0.2,0-0.2,0.1c-5.2,2.6-10.5,5.2-15.7,7.8c0,0-0.1,0-0.1,0.1c1.1,0,2.2,0,3.3,0
								c0.1,0,0.3,0,0.4-0.1c3.9-2,7.9-3.9,11.8-5.9C45.4,13.1,46.7,12.4,48.1,11.7z M37.5,19.7C37.5,19.7,37.5,19.7,37.5,19.7
								c0,0,0.1,0,0.1,0c3.4,0,6.9,0,10.3,0c0.2,0,0.2-0.1,0.2-0.2c0-1.7,0-3.3,0-5c0,0,0-0.1,0-0.2C44.6,16.1,41,17.9,37.5,19.7z
								 M48.1,33C48.1,33,48.1,33,48.1,33c0-1.8,0-3.5,0-5.2c0-0.2-0.1-0.1-0.2-0.1c-3.4,0-6.8,0-10.3,0c0,0-0.1,0-0.1,0
								C41,29.5,44.6,31.3,48.1,33z"/>
							<path class="st3" d="M0,26.1c7.1,0,14.3,0,21.4,0c0.2,0,0.2,0,0.2,0.2c0,3.1,0,6.3,0,9.4c-0.5,0-1.1,0-1.6,0
								c0-2.4,0-4.9,0-7.3c-0.1,0-0.2,0.1-0.2,0.1c-4.8,2.4-9.5,4.8-14.3,7.1c-0.1,0-0.1,0.1-0.2,0.1c-0.6,0-1.2,0-1.8,0
								c0-0.1,0.1-0.1,0.2-0.1C9,33,14.2,30.4,19.4,27.8c0.1,0,0.1-0.1,0.2-0.1c-1.2,0-2.3,0-3.4,0c-0.1,0-0.3,0-0.4,0.1
								C10.6,30.4,5.4,33,0.2,35.6c-0.1,0-0.1,0-0.2,0.1c-0.1,0,0-0.1,0-0.2c0-0.9,0-1.7,0-2.6c0.1,0,0.1,0,0.2,0
								c3.4-1.7,6.9-3.4,10.3-5.2c0,0,0.1,0,0.1-0.1c-3.5,0-7.1,0-10.6,0C0,27.2,0,26.6,0,26.1z"/>
							<path class="st4" d="M28.1,35.7c0-2.4,0-4.9,0-7.3c0.1,0,0.1,0.1,0.2,0.1c4.8,2.4,9.5,4.8,14.3,7.1c0.1,0,0.1,0.1,0.2,0.1
								C37.8,35.7,32.9,35.7,28.1,35.7z"/>
							<path class="st4" d="M5.4,35.7c0.1,0,0.1-0.1,0.2-0.1c4.8-2.4,9.5-4.8,14.3-7.1c0.1,0,0.1-0.1,0.2-0.1c0,2.5,0,4.9,0,7.3
								C15.2,35.7,10.3,35.7,5.4,35.7z"/>
							<path class="st2" d="M0,35.7c0-0.1,0.1-0.1,0.2-0.1c5.2-2.6,10.4-5.2,15.7-7.8c0.1-0.1,0.2-0.1,0.4-0.1c1.1,0,2.2,0,3.4,0
								c-0.1,0.1-0.2,0.1-0.2,0.1C14.2,30.4,9,33,3.8,35.6c-0.1,0-0.1,0-0.2,0.1C2.4,35.7,1.2,35.7,0,35.7z"/>
							<path class="st4" d="M0,14.4c0.1,0,0.1,0,0.2,0c3.4,1.7,6.9,3.4,10.3,5.2c0,0,0.1,0,0.1,0.1c-3.5,0-7.1,0-10.6,0
								C0,17.9,0,16.2,0,14.4z"/>
							<path class="st4" d="M0,27.7c3.5,0,7.1,0,10.6,0c0,0.1-0.1,0.1-0.1,0.1C7,29.5,3.6,31.2,0.1,33C0.1,33,0,33,0,33
								C0,31.2,0,29.5,0,27.7z"/>
							<path class="st2" d="M48.1,35.7c0-0.1-0.1-0.1-0.2-0.1c-5.2-2.6-10.4-5.2-15.6-7.8c-0.1,0-0.1-0.1-0.2-0.1c0.1,0,0.2,0,0.2,0
								c1.1,0,2.1,0,3.2,0c0.1,0,0.2,0,0.3,0.1c4.1,2,8.1,4,12.2,6.1c0.1,0.1,0.2,0.1,0.2,0.3C48.1,34.7,48.1,35.2,48.1,35.7
								C48.1,35.7,48.1,35.7,48.1,35.7z"/>
							<path class="st2" d="M0,11.7c5.3,2.7,10.7,5.3,16,8c0,0,0,0,0,0c-0.1,0-0.1,0-0.2,0c-1,0-2.1,0-3.1,0c-0.1,0-0.3,0-0.4-0.1
								c-4-2-8-4-12.1-6c-0.1,0-0.1-0.1-0.2-0.1C0,12.9,0,12.3,0,11.7z"/>
							<path class="st4" d="M28.1,19c0-0.4,0-0.7,0-1.1c0-2,0-4.1,0-6.1c0-0.1,0-0.2,0.2-0.2c4.8,0,9.6,0,14.4,0c0,0,0,0,0.1,0
								C37.8,14.1,33,16.6,28.1,19z"/>
							<path class="st4" d="M5.4,11.7c0.1,0,0.1,0,0.2,0c4.7,0,9.5,0,14.2,0c0.2,0,0.2,0,0.2,0.2c0,2.3,0,4.6,0,6.9
								c0,0.1,0,0.1,0,0.2C15.2,16.6,10.3,14.1,5.4,11.7C5.4,11.7,5.4,11.7,5.4,11.7z"/>
							<path class="st2" d="M48.1,11.7c-1.4,0.7-2.7,1.4-4,2c-3.9,2-7.9,3.9-11.8,5.9c-0.1,0.1-0.3,0.1-0.4,0.1c-1.1,0-2.2,0-3.3,0
								c0-0.1,0.1-0.1,0.1-0.1c5.2-2.6,10.5-5.2,15.7-7.8c0.1,0,0.2-0.1,0.2-0.1c1.1,0,2.2,0,3.3,0C48,11.7,48,11.7,48.1,11.7z"/>
							<path class="st4" d="M37.5,19.7c3.5-1.8,7-3.5,10.6-5.3c0.1,0.1,0,0.1,0,0.2c0,1.7,0,3.3,0,5c0,0.1,0,0.2-0.2,0.2
								c-3.4,0-6.9,0-10.3,0C37.6,19.7,37.6,19.7,37.5,19.7C37.5,19.7,37.5,19.7,37.5,19.7z"/>
							<path class="st4" d="M48.1,33c-3.5-1.8-7.1-3.5-10.6-5.3c0-0.1,0.1,0,0.1,0c3.4,0,6.8,0,10.3,0c0.1,0,0.2,0,0.2,0.1
								C48.1,29.6,48.1,31.3,48.1,33C48.1,33,48.1,33,48.1,33z"/>
						</g>
					</g>
				</g>
			</g>
		</g>
	</g>
	<g>
		<path class="st5" d="M24.1,36.5c-7.1,0-12.9-5.8-12.9-12.9S17,10.7,24.1,10.7S37,16.5,37,23.6C36.9,30.7,31.2,36.5,24.1,36.5z
			 M24.1,12.5c-6.1,0-11.1,5-11.1,11.1s5,11.1,11.1,11.1s11.1-5,11.1-11.1S30.2,12.5,24.1,12.5z"/>
	</g>
</g>
</svg>
