<?xml version="1.0" encoding="utf-8"?>
<!-- Generator: Adobe Illustrator 24.0.0, SVG Export Plug-In . SVG Version: 6.00 Build 0)  -->
<svg version="1.1" id="Layer_1" xmlns="http://www.w3.org/2000/svg" xmlns:xlink="http://www.w3.org/1999/xlink" x="0px" y="0px"
	 viewBox="0 0 45 45" style="enable-background:new 0 0 45 45;" xml:space="preserve">
<style type="text/css">
	.st0{fill:#FECD06;stroke:#FECD06;stroke-width:0.8258;stroke-miterlimit:10;}
	.st1{fill:#FECD06;}
	.st2{fill:none;stroke:#FEC20F;stroke-width:1.5484;stroke-miterlimit:10;}
</style>
<g>
	<g>
		<g>
			<path class="st0" d="M22.7,31.9c-0.2,0-0.3,0-0.5,0c-0.3-0.1-0.6-0.2-0.9-0.3c-2.7-1.3-4.8-3.2-6.2-5.8c-1-1.8-1.6-3.7-1.7-5.7
				c-0.1-1-0.1-2-0.1-3c0-0.7,0.4-1.3,1-1.5c1-0.4,1.7-1.1,2.1-2.2c0.2-0.7,0.8-1.1,1.5-1.1c2.8,0,5.6-0.1,8.5-0.1
				c0.7,0,1.3,0.4,1.5,1c0.4,1,1.1,1.8,2.2,2.1c0.4,0.1,0.7,0.4,0.9,0.8c0.1,0.1,0.1,0.2,0.1,0.4c0,1,0,2.1,0,3.1c0,0.1,0,0.1,0,0.2
				c-0.1,0.7-0.1,1.4-0.3,2C30,26.6,26.6,30.4,22.7,31.9z M22.2,13.4c-1.4,0-2.8,0-4.2,0c-0.3,0-0.4,0.1-0.5,0.3
				c-0.5,1.3-1.4,2.3-2.7,2.8c-0.2,0.1-0.3,0.2-0.3,0.5c0,0.7,0,1.5,0,2.2c0,0.9,0.1,1.8,0.4,2.7c1.1,4,3.5,6.9,7.3,8.7
				c0.2,0.1,0.4,0.1,0.6,0c2.3-1.1,4.1-2.7,5.4-4.8c1.2-1.9,1.8-3.9,1.9-6.1c0-1,0-1.9,0-2.9c0-0.3-0.1-0.4-0.4-0.5
				c-1.3-0.5-2.2-1.4-2.7-2.7c-0.1-0.3-0.2-0.4-0.5-0.4C25,13.4,23.6,13.4,22.2,13.4z"/>
			<path class="st1" d="M19.9,19.7c0-0.5,0-1.1,0-1.6c0-1.1,0.7-2.1,1.9-2.4c1.4-0.4,2.9,0.7,3,2.2c0,0.5,0,1,0,1.5
				c0,0.1,0,0.1,0,0.2c0.1,0,0.3,0,0.4,0.1c0.6,0.2,1,0.7,1,1.3c0,1.2,0.1,2.4,0,3.5c0,1.3-1.1,2.4-2.4,2.4c-0.9,0-1.8,0-2.7,0
				c-1.3,0-2.4-1.1-2.5-2.4c0-1.2,0-2.4,0-3.5c0-0.7,0.5-1.2,1.2-1.3C19.7,19.8,19.8,19.8,19.9,19.7z M22.3,20.9c-0.8,0-1.6,0-2.3,0
				c-0.3,0-0.3,0.1-0.3,0.3c0,1.1,0,2.1,0,3.2c0,0.9,0.6,1.5,1.5,1.5c0.8,0,1.6,0,2.3,0c0.9,0,1.5-0.6,1.5-1.5c0-1,0-2.1,0-3.1
				c0-0.3-0.1-0.4-0.4-0.4C23.8,20.9,23.1,20.9,22.3,20.9z M21,19.7c0.8,0,1.7,0,2.5,0c0-0.6,0-1.2,0-1.8c-0.1-0.6-0.6-1.1-1.3-1.1
				c-0.6,0-1.2,0.5-1.2,1.1C21,18.5,21,19.1,21,19.7z"/>
			<path class="st1" d="M21.7,23.4c0-0.2,0-0.3,0-0.5c0-0.3,0.2-0.6,0.6-0.6c0.3,0,0.6,0.2,0.6,0.6c0,0.4,0,0.7,0,1.1
				c0,0.3-0.2,0.6-0.6,0.6c-0.3,0-0.6-0.2-0.6-0.6C21.7,23.7,21.7,23.6,21.7,23.4z"/>
		</g>
	</g>
	<path class="st2" d="M32.1,39.6H12.4c-4.3,0-7.7-3.5-7.7-7.7V12.3c0-4.3,3.5-7.7,7.7-7.7h19.6c4.3,0,7.7,3.5,7.7,7.7v19.6
		C39.8,36.1,36.3,39.6,32.1,39.6z"/>
</g>
</svg>
