<?xml version="1.0" encoding="utf-8"?>
<!-- Generator: Adobe Illustrator 24.0.0, SVG Export Plug-In . SVG Version: 6.00 Build 0)  -->
<svg version="1.1" id="Layer_1" xmlns="http://www.w3.org/2000/svg" xmlns:xlink="http://www.w3.org/1999/xlink" x="0px" y="0px"
	 viewBox="0 0 72 72" style="enable-background:new 0 0 72 72;" xml:space="preserve">
<style type="text/css">
	.st0{fill:#FECD06;stroke:#FECD06;stroke-width:1.6;stroke-miterlimit:10;}
	.st1{fill:#FECD06;}
	.st2{fill:none;stroke:#FEC20F;stroke-width:3;stroke-miterlimit:10;}
</style>
<g>
	<g>
		<g>
			<path class="st0" d="M37.1,55.5c-0.3,0-0.6,0-1,0c-0.6-0.2-1.1-0.4-1.7-0.7c-5.2-2.5-9.2-6.2-12-11.2c-1.9-3.4-3.1-7.1-3.3-11.1
				C19,30.6,19,28.6,19,26.7c0-1.4,0.7-2.5,2-3c2-0.8,3.3-2.2,4.1-4.2c0.5-1.3,1.5-2.1,2.9-2.1c5.5-0.1,10.9-0.1,16.4-0.2
				c1.4,0,2.5,0.7,3,2c0.8,2,2.2,3.4,4.2,4.1c0.8,0.3,1.4,0.8,1.8,1.6c0.1,0.2,0.2,0.5,0.3,0.7c0,2,0,4,0.1,6c0,0.1,0,0.2-0.1,0.3
				c-0.2,1.3-0.2,2.6-0.5,3.9C51.4,45.1,44.8,52.5,37.1,55.5z M36.2,19.6c-2.7,0-5.4,0.1-8.1,0.1c-0.6,0-0.8,0.1-1,0.7
				c-0.9,2.6-2.7,4.4-5.3,5.4c-0.5,0.2-0.6,0.4-0.6,0.9c0,1.5,0,2.9,0.1,4.4c0,1.8,0.2,3.5,0.7,5.2c2,7.8,6.7,13.4,14.1,16.8
				c0.4,0.2,0.8,0.2,1.2,0c4.4-2.1,7.9-5.2,10.5-9.3c2.3-3.6,3.5-7.5,3.7-11.8c0.1-1.9,0-3.7,0-5.6c0-0.6-0.1-0.8-0.7-1.1
				c-2.5-0.9-4.3-2.7-5.3-5.2c-0.2-0.6-0.4-0.7-1.1-0.7C41.6,19.5,38.9,19.5,36.2,19.6z"/>
			<path class="st1" d="M31.7,31.9c0-1.1,0-2.1,0-3.1c0-2.2,1.4-4.1,3.6-4.6c2.8-0.7,5.6,1.4,5.7,4.3c0,1,0,1.9,0,2.9
				c0,0.1,0,0.3,0,0.4c0.3,0,0.5,0.1,0.8,0.1c1.2,0.3,2,1.3,2,2.5c0,2.3,0.1,4.6,0.1,6.9c0,2.5-2.2,4.7-4.7,4.7
				c-1.7,0-3.5,0.1-5.2,0.1c-2.5,0-4.7-2.1-4.8-4.6C29,39.1,29,36.8,29,34.5c0-1.3,1-2.4,2.4-2.6C31.4,31.9,31.6,31.9,31.7,31.9z
				 M36.4,34.1c-1.5,0-3,0-4.5,0.1c-0.5,0-0.7,0.1-0.7,0.7c0,2,0,4.1,0.1,6.1c0,1.7,1.2,2.8,2.9,2.8c1.5,0,3,0,4.5-0.1
				c1.8,0,2.9-1.2,2.9-3c0-2,0-4-0.1-6c0-0.6-0.1-0.7-0.7-0.7C39.4,34,37.9,34,36.4,34.1z M33.9,31.8c1.6,0,3.2,0,4.8-0.1
				c0-1.2,0-2.4-0.1-3.5c-0.1-1.2-1.2-2.1-2.4-2c-1.2,0-2.3,1-2.3,2.1C33.9,29.5,33.9,30.6,33.9,31.8z"/>
			<path class="st1" d="M35.3,38.9c0-0.3,0-0.7,0-1c0-0.7,0.5-1.2,1.1-1.2c0.6,0,1.1,0.5,1.1,1.1c0,0.7,0,1.4,0,2.1
				c0,0.7-0.5,1.1-1.1,1.1c-0.6,0-1.1-0.5-1.1-1.1C35.3,39.6,35.3,39.2,35.3,38.9z"/>
		</g>
	</g>
	<path class="st2" d="M55.3,70.4h-38c-8.2,0-15-6.8-15-15v-38c0-8.2,6.8-15,15-15h38c8.2,0,15,6.8,15,15v38
		C70.3,63.6,63.6,70.4,55.3,70.4z"/>
</g>
</svg>
