<?xml version="1.0" encoding="utf-8"?>
<!-- Generator: Adobe Illustrator 24.0.0, SVG Export Plug-In . SVG Version: 6.00 Build 0)  -->
<svg version="1.1" id="Layer_1" xmlns="http://www.w3.org/2000/svg" xmlns:xlink="http://www.w3.org/1999/xlink" x="0px" y="0px"
	 viewBox="0 0 72 72" style="enable-background:new 0 0 72 72;" xml:space="preserve">
<style type="text/css">
	.st0{fill:#FCCC0F;}
	.st1{fill:#FFFFFF;stroke:#FECD06;stroke-width:0.8713;stroke-miterlimit:10;}
	.st2{fill:none;stroke:#FEC20F;stroke-width:3;stroke-miterlimit:10;}
</style>
<g>
	<g>
		<g>
			<path class="st0" d="M31.9,43.9c0.4,0,0.9,0.2,1.3,0.1c3.1-0.2,6.1-0.5,9.2-0.7c2.1-0.2,3.4-1.2,4-3.2c0.1-0.5,0.4-1,0.8-1.4
				c2.6-2.6,5.3-5.2,7.9-7.8c1.6-1.5,3.6-1.3,4.6,0.3c0.7,1.2,0.6,2.4-0.4,3.4c-5.1,5-10.2,10.1-15.4,15.1c-0.4,0.3-1,0.5-1.5,0.6
				c-6.6,0.6-13.3,1.3-19.9,1.8c-0.5,0-1.2-0.5-1.4-0.9C20,48.3,19,45.5,18,42.6c-0.2-0.5,0-1.3,0.2-1.9c2.7-4.9,7.8-6.6,13.1-4.7
				c1.9,0.7,4.2,0.6,6.2,0.7c1.5,0.1,3-0.2,4.5-0.3c1.9-0.1,3.2,1,3.3,2.6c0.1,1.6-1,2.9-2.9,3.1c-3,0.3-5.9,0.5-8.9,0.7
				c-0.6,0.1-1.2,0.2-1.8,0.4C31.9,43.5,31.9,43.7,31.9,43.9z"/>
			<path class="st0" d="M12.7,43.2c1.3-0.5,2.4-0.9,3.8-1.5c1.4,3.7,2.7,7.2,4.1,11c-1,0.4-1.9,0.9-2.9,1.1
				c-0.4,0.1-1.2-0.3-1.3-0.6C15.2,49.9,14,46.7,12.7,43.2z"/>
		</g>
		<g>
			<g>
				<g>
					<g>
						<path class="st1" d="M41.4,32c-0.1,0-0.1,0-0.2,0l-9.3-4.2c-0.2-0.1-0.3-0.3-0.3-0.5l0-10.4c0-0.2,0.1-0.3,0.2-0.4
							c0.1-0.1,0.3-0.1,0.5-0.1l9.3,3.2c0.2,0.1,0.4,0.3,0.4,0.5l0,11.4c0,0.2-0.1,0.3-0.2,0.4C41.6,32,41.5,32,41.4,32z M32.7,27
							l8.2,3.7l0-10.2l-8.2-2.8L32.7,27z"/>
					</g>
					<g>
						<path class="st1" d="M41.4,20.7c-0.1,0-0.1,0-0.2,0L32,17.4c-0.2-0.1-0.4-0.3-0.4-0.5c0-0.2,0.1-0.4,0.3-0.5l7.9-3
							c0.1,0,0.2,0,0.3,0l9.8,3c0.2,0.1,0.4,0.3,0.4,0.5c0,0.2-0.1,0.4-0.3,0.5l-8.4,3.2C41.6,20.7,41.5,20.7,41.4,20.7z M33.7,16.9
							l7.7,2.7l6.8-2.6l-8.1-2.5L33.7,16.9z"/>
					</g>
					<g>
						<path class="st1" d="M41.4,32c-0.1,0-0.2,0-0.3-0.1c-0.2-0.1-0.3-0.3-0.3-0.5c0,0,0.2-11.8,0.4-11.9l8.4-3.2
							c0.2-0.1,0.3,0,0.5,0.1c0.1,0.1,0.2,0.3,0.2,0.4l0,10.4c0,0.2-0.1,0.4-0.3,0.5L41.6,32C41.6,32,41.5,32,41.4,32z M42,20.5
							l0,10.2l7.4-3.7l0-9.3L42,20.5z"/>
					</g>
				</g>
			</g>
		</g>
	</g>
	<path class="st2" d="M55.3,70.4h-38c-8.2,0-15-6.8-15-15v-38c0-8.2,6.8-15,15-15h38c8.2,0,15,6.8,15,15v38
		C70.3,63.6,63.6,70.4,55.3,70.4z"/>
</g>
</svg>
