<?xml version="1.0" encoding="utf-8"?>
<!-- Generator: Adobe Illustrator 24.0.0, SVG Export Plug-In . SVG Version: 6.00 Build 0)  -->
<svg version="1.1" id="Layer_1" xmlns="http://www.w3.org/2000/svg" xmlns:xlink="http://www.w3.org/1999/xlink" x="0px" y="0px"
	 viewBox="0 0 45 45" style="enable-background:new 0 0 45 45;" xml:space="preserve">
<style type="text/css">
	.st0{fill:#FECD06;stroke:#FECD06;stroke-width:0.5161;stroke-miterlimit:10;}
	.st1{fill:#1D067C;}
	.st2{fill:#FECD06;}
	.st3{fill:#1D067C;stroke:#FEC20F;stroke-width:0.5657;stroke-miterlimit:10;}
	.st4{fill:#FECD06;stroke:#FECD06;stroke-width:0.3029;stroke-miterlimit:10;}
	.st5{fill:none;stroke:#FEC20F;stroke-width:1.5484;stroke-miterlimit:10;}
</style>
<g>
	<g>
		<g>
			<g>
				<path class="st0" d="M34.2,23.7c0.1-0.2,0-0.5-0.2-0.7l-3.4-4.2c-0.2-0.2-0.4-0.3-0.6-0.3h-2.3v-3.6c0-1-0.9-1.9-1.9-1.9H12.2
					c-1,0-1.9,0.9-1.9,1.9v12.1c0,1,0.9,1.9,1.9,1.9h20.1c1,0,1.9-0.9,1.9-1.9V24C34.2,23.9,34.2,23.8,34.2,23.7z M29.6,20.1l1.6,2
					h-3.5v-2H29.6z M32.6,26.9c0,0.1-0.1,0.3-0.3,0.3H12.2c-0.1,0-0.3-0.1-0.3-0.3V14.9c0-0.1,0.1-0.3,0.3-0.3h13.6
					c0.1,0,0.3,0.1,0.3,0.3v8.1c0,0.5,0.4,0.8,0.8,0.8h5.5c0.1,0,0.3,0.1,0.3,0.3V26.9z"/>
				<g>
					<circle class="st1" cx="16.5" cy="28.2" r="2.6"/>
				</g>
				<g>
					<path class="st2" d="M16.5,31.2c-1.6,0-3-1.3-3-3s1.3-3,3-3c1.6,0,3,1.3,3,3S18.1,31.2,16.5,31.2z M16.5,26
						c-1.2,0-2.2,1-2.2,2.2c0,1.2,1,2.2,2.2,2.2c1.2,0,2.2-1,2.2-2.2C18.7,27,17.7,26,16.5,26z"/>
				</g>
				<g>
					<circle class="st3" cx="26.1" cy="28.2" r="2.6"/>
				</g>
				<g>
					<path class="st2" d="M26.1,31.2c-1.6,0-3-1.3-3-3s1.3-3,3-3c1.6,0,3,1.3,3,3S27.8,31.2,26.1,31.2z M26.1,26
						c-1.2,0-2.2,1-2.2,2.2c0,1.2,1,2.2,2.2,2.2c1.2,0,2.2-1,2.2-2.2C28.3,27,27.3,26,26.1,26z"/>
				</g>
			</g>
		</g>
		<g>
			<g>
				<path class="st4" d="M18.7,16.5C18.7,16.5,18.8,16.5,18.7,16.5c0.1,0,0.1,0,0.1,0c0.5,0,0.9,0.1,1.3,0.3c1.1,0.5,1.8,1.4,2,2.6
					c0,0.1,0,0.3,0.1,0.4c0,0.1,0,0.3,0,0.4c0,0,0,0,0,0.1c0,0.2-0.1,0.5-0.1,0.7c-0.5,1.8-2.4,2.8-4.2,2.4c-1.8-0.4-2.9-2.2-2.6-4
					C15.7,17.7,17,16.5,18.7,16.5C18.7,16.5,18.7,16.5,18.7,16.5z M21.8,20c0-1.7-1.4-3-3-3c-1.7,0-3.1,1.3-3.1,3
					c0,1.7,1.4,3.1,3.1,3C20.4,23,21.8,21.6,21.8,20z"/>
				<path class="st2" d="M18.4,19.1c0-0.4,0-0.8,0-1.2c0-0.1,0.1-0.2,0.1-0.2c0.1,0,0.2,0,0.2,0.1c0,0.1,0,0.1,0,0.2
					c0,0.7,0,1.3,0,2c0,0.2,0,0.2,0.2,0.3c0.4,0.2,0.8,0.3,1.2,0.5c0.1,0.1,0.2,0.2,0.1,0.3c0,0.1-0.2,0.2-0.3,0.1
					c-0.3-0.1-0.6-0.3-0.9-0.4c-0.2-0.1-0.4-0.2-0.5-0.2c-0.1,0-0.2-0.1-0.2-0.3C18.4,19.8,18.4,19.5,18.4,19.1z"/>
				<path class="st4" d="M20.7,20.2c0,0-0.1,0-0.1,0c-0.1,0-0.2-0.1-0.2-0.2c0-0.1,0.1-0.2,0.2-0.2c0.1,0,0.2,0,0.3,0
					c0.1,0,0.2,0.1,0.2,0.2c0,0.1-0.1,0.2-0.2,0.2C20.8,20.2,20.8,20.2,20.7,20.2z"/>
				<path class="st4" d="M16.8,20.2c0,0-0.1,0-0.1,0c-0.1,0-0.2-0.1-0.2-0.2c0-0.1,0.1-0.2,0.2-0.2c0.1,0,0.2,0,0.3,0
					c0.1,0,0.2,0.1,0.2,0.2c0,0.1-0.1,0.2-0.2,0.2C16.9,20.2,16.8,20.2,16.8,20.2z"/>
				<path class="st4" d="M18.5,22c0,0,0-0.1,0-0.1c0-0.1,0.1-0.2,0.2-0.2c0.1,0,0.2,0.1,0.2,0.2c0,0.1,0,0.2,0,0.3
					c0,0.1-0.1,0.2-0.2,0.2c-0.1,0-0.2-0.1-0.2-0.2C18.5,22,18.5,22,18.5,22z"/>
			</g>
		</g>
	</g>
	<path class="st5" d="M32.1,39.6H12.4c-4.3,0-7.7-3.5-7.7-7.7V12.3c0-4.3,3.5-7.7,7.7-7.7h19.6c4.3,0,7.7,3.5,7.7,7.7v19.6
		C39.8,36.1,36.3,39.6,32.1,39.6z"/>
</g>
</svg>
