<?xml version="1.0" encoding="utf-8"?>
<!-- Generator: Adobe Illustrator 24.0.0, SVG Export Plug-In . SVG Version: 6.00 Build 0)  -->
<svg version="1.1" id="Layer_1" xmlns="http://www.w3.org/2000/svg" xmlns:xlink="http://www.w3.org/1999/xlink" x="0px" y="0px"
	 viewBox="0 0 72 72" style="enable-background:new 0 0 72 72;" xml:space="preserve">
<style type="text/css">
	.st0{fill:#FECD06;stroke:#FECD06;stroke-miterlimit:10;}
	.st1{fill:#1D067C;}
	.st2{fill:#FECD06;}
	.st3{fill:#1D067C;stroke:#FEC20F;stroke-width:1.096;stroke-miterlimit:10;}
	.st4{fill:#FECD06;stroke:#FECD06;stroke-width:0.587;stroke-miterlimit:10;}
	.st5{fill:none;stroke:#FEC20F;stroke-width:3;stroke-miterlimit:10;}
</style>
<g>
	<g>
		<g>
			<g>
				<path class="st0" d="M59.7,39.6c0.1-0.5,0-1-0.3-1.4L52.8,30c-0.3-0.4-0.8-0.6-1.2-0.6h-4.4v-7.1c0-2-1.6-3.7-3.7-3.7H17.1
					c-2,0-3.7,1.6-3.7,3.7v23.4c0,2,1.6,3.7,3.7,3.7h38.9c2,0,3.7-1.6,3.7-3.7v-5.7C59.7,39.9,59.7,39.7,59.7,39.6z M50.8,32.6
					l3.1,3.8h-6.8v-3.8H50.8z M56.6,45.8c0,0.3-0.2,0.5-0.5,0.5H17.1c-0.3,0-0.5-0.2-0.5-0.5V22.4c0-0.3,0.2-0.5,0.5-0.5h26.3
					c0.3,0,0.5,0.2,0.5,0.5V38c0,0.9,0.7,1.6,1.6,1.6h10.6c0.3,0,0.5,0.2,0.5,0.5V45.8z"/>
				<g>
					<circle class="st1" cx="25.4" cy="48.2" r="5"/>
				</g>
				<g>
					<path class="st2" d="M25.4,54c-3.2,0-5.8-2.6-5.8-5.8c0-3.2,2.6-5.8,5.8-5.8s5.8,2.6,5.8,5.8C31.2,51.4,28.6,54,25.4,54z
						 M25.4,44c-2.3,0-4.2,1.9-4.2,4.2c0,2.3,1.9,4.2,4.2,4.2c2.3,0,4.2-1.9,4.2-4.2C29.6,45.9,27.8,44,25.4,44z"/>
				</g>
				<g>
					<circle class="st3" cx="44.1" cy="48.2" r="5"/>
				</g>
				<g>
					<path class="st2" d="M44.1,54c-3.2,0-5.8-2.6-5.8-5.8c0-3.2,2.6-5.8,5.8-5.8c3.2,0,5.8,2.6,5.8,5.8C49.9,51.4,47.3,54,44.1,54z
						 M44.1,44c-2.3,0-4.2,1.9-4.2,4.2c0,2.3,1.9,4.2,4.2,4.2s4.2-1.9,4.2-4.2C48.3,45.9,46.4,44,44.1,44z"/>
				</g>
			</g>
		</g>
		<g>
			<g>
				<path class="st4" d="M29.8,25.5c0,0,0.1,0,0.1,0c0,0,0.1,0,0.1,0c0.9,0,1.8,0.2,2.6,0.6c2.1,1,3.4,2.6,3.9,4.9
					c0.1,0.3,0.1,0.5,0.1,0.8c0,0.3,0,0.6,0,0.9c0,0,0,0.1,0,0.1c-0.1,0.5-0.1,1-0.3,1.4c-1,3.4-4.6,5.4-8.1,4.6
					c-3.5-0.9-5.7-4.3-5-7.8c0.6-3.1,3.3-5.3,6.4-5.4C29.7,25.5,29.7,25.5,29.8,25.5z M35.7,32.3c0-3.2-2.6-5.9-5.8-5.9
					c-3.3,0-5.9,2.6-6,5.9c0,3.3,2.7,5.9,6,5.9C33.1,38.2,35.7,35.5,35.7,32.3z"/>
				<path class="st2" d="M29.1,30.6c0-0.8,0-1.5,0-2.3c0-0.2,0.1-0.4,0.3-0.4c0.2-0.1,0.4,0,0.5,0.1c0.1,0.1,0.1,0.2,0.1,0.3
					c0,1.3,0,2.6,0,3.9c0,0.3,0.1,0.4,0.4,0.5c0.8,0.3,1.5,0.6,2.3,1c0.3,0.1,0.4,0.3,0.3,0.6c-0.1,0.2-0.3,0.3-0.6,0.2
					c-0.6-0.3-1.2-0.5-1.8-0.8c-0.3-0.1-0.7-0.3-1-0.4c-0.2-0.1-0.3-0.3-0.3-0.5C29.1,32,29.1,31.3,29.1,30.6z"/>
				<path class="st4" d="M33.6,32.7c-0.1,0-0.2,0-0.3,0c-0.2,0-0.3-0.2-0.3-0.4c0-0.2,0.1-0.4,0.3-0.4c0.2,0,0.4,0,0.6,0
					c0.2,0,0.3,0.2,0.3,0.4c0,0.2-0.1,0.4-0.3,0.4C33.9,32.7,33.8,32.7,33.6,32.7z"/>
				<path class="st4" d="M26,32.7c-0.1,0-0.2,0-0.3,0c-0.2,0-0.3-0.2-0.3-0.4c0-0.2,0.1-0.4,0.3-0.4c0.2,0,0.4,0,0.6,0
					c0.2,0,0.3,0.2,0.3,0.4c0,0.2-0.1,0.4-0.3,0.4C26.2,32.7,26.1,32.7,26,32.7z"/>
				<path class="st4" d="M29.4,36.1c0-0.1,0-0.2,0-0.3c0-0.2,0.2-0.4,0.4-0.4c0.2,0,0.4,0.2,0.4,0.4c0,0.2,0,0.3,0,0.5
					c0,0.2-0.2,0.4-0.4,0.4c-0.2,0-0.4-0.2-0.4-0.4C29.4,36.3,29.4,36.2,29.4,36.1z"/>
			</g>
		</g>
	</g>
	<path class="st5" d="M55.6,70.4h-38c-8.2,0-15-6.8-15-15v-38c0-8.2,6.8-15,15-15h38c8.2,0,15,6.8,15,15v38
		C70.6,63.6,63.8,70.4,55.6,70.4z"/>
</g>
</svg>
