<?xml version="1.0" encoding="utf-8"?>
<!-- Generator: Adobe Illustrator 24.0.0, SVG Export Plug-In . SVG Version: 6.00 Build 0)  -->
<svg version="1.1" id="Layer_1" xmlns="http://www.w3.org/2000/svg" xmlns:xlink="http://www.w3.org/1999/xlink" x="0px" y="0px"
	 viewBox="0 0 45 45" style="enable-background:new 0 0 45 45;" xml:space="preserve">
<style type="text/css">
	.st0{fill:#FCCC0F;}
	.st1{fill:#FFFFFF;stroke:#FECD06;stroke-width:0.4497;stroke-miterlimit:10;}
	.st2{fill:none;stroke:#FEC20F;stroke-width:1.5484;stroke-miterlimit:10;}
</style>
<g>
	<g>
		<g>
			<path class="st0" d="M20,25.9c0.2,0,0.5,0.1,0.7,0.1c1.6-0.1,3.2-0.3,4.8-0.4c1.1-0.1,1.8-0.6,2.1-1.7c0.1-0.3,0.2-0.5,0.4-0.7
				c1.4-1.3,2.7-2.7,4.1-4c0.8-0.8,1.9-0.7,2.4,0.2c0.4,0.6,0.3,1.2-0.2,1.7c-2.6,2.6-5.3,5.2-7.9,7.8c-0.2,0.2-0.5,0.3-0.8,0.3
				c-3.4,0.3-6.9,0.7-10.3,0.9c-0.2,0-0.6-0.2-0.7-0.5c-0.6-1.4-1.1-2.9-1.6-4.4c-0.1-0.3,0-0.7,0.1-1c1.4-2.5,4-3.4,6.8-2.4
				c1,0.4,2.1,0.3,3.2,0.4c0.8,0,1.6-0.1,2.3-0.1c1,0,1.6,0.5,1.7,1.3c0.1,0.8-0.5,1.5-1.5,1.6c-1.5,0.1-3.1,0.2-4.6,0.4
				c-0.3,0-0.6,0.1-0.9,0.2C20,25.8,20,25.9,20,25.9z"/>
			<path class="st0" d="M10.1,25.6c0.7-0.3,1.3-0.5,2-0.8c0.7,1.9,1.4,3.7,2.1,5.7c-0.5,0.2-1,0.5-1.5,0.6c-0.2,0-0.6-0.2-0.7-0.3
				C11.3,29.1,10.7,27.4,10.1,25.6z"/>
		</g>
		<g>
			<g>
				<g>
					<g>
						<path class="st1" d="M24.9,19.8c0,0-0.1,0-0.1,0L20,17.7c-0.1,0-0.2-0.1-0.2-0.2l0-5.4c0-0.1,0-0.2,0.1-0.2
							c0.1-0.1,0.2-0.1,0.2,0l4.8,1.6c0.1,0,0.2,0.1,0.2,0.3l0,5.9c0,0.1,0,0.2-0.1,0.2C25,19.8,24.9,19.8,24.9,19.8z M20.4,17.2
							l4.2,1.9l0-5.3l-4.3-1.5L20.4,17.2z"/>
					</g>
					<g>
						<path class="st1" d="M24.9,14C24.9,14,24.8,14,24.9,14L20,12.3c-0.1,0-0.2-0.1-0.2-0.3c0-0.1,0.1-0.2,0.2-0.3l4.1-1.5
							c0.1,0,0.1,0,0.2,0l5.1,1.5c0.1,0,0.2,0.1,0.2,0.3c0,0.1-0.1,0.2-0.2,0.3L24.9,14C25,14,24.9,14,24.9,14z M20.9,12l4,1.4
							l3.5-1.3l-4.2-1.3L20.9,12z"/>
					</g>
					<g>
						<path class="st1" d="M24.9,19.8c-0.1,0-0.1,0-0.1,0c-0.1-0.1-0.1-0.1-0.1-0.2c0,0,0.1-6.1,0.2-6.1l4.4-1.7c0.1,0,0.2,0,0.3,0
							c0.1,0.1,0.1,0.1,0.1,0.2l0,5.4c0,0.1-0.1,0.2-0.2,0.2L25,19.8C25,19.8,24.9,19.8,24.9,19.8z M25.2,13.9l0,5.2l3.8-1.9l0-4.8
							L25.2,13.9z"/>
					</g>
				</g>
			</g>
		</g>
	</g>
	<path class="st2" d="M32.1,39.6H12.4c-4.3,0-7.7-3.5-7.7-7.7V12.3c0-4.3,3.5-7.7,7.7-7.7h19.6c4.3,0,7.7,3.5,7.7,7.7v19.6
		C39.8,36.1,36.3,39.6,32.1,39.6z"/>
</g>
</svg>
