<?xml version="1.0" encoding="utf-8"?>
<!-- Generator: Adobe Illustrator 24.0.0, SVG Export Plug-In . SVG Version: 6.00 Build 0)  -->
<svg version="1.1" id="Layer_1" xmlns="http://www.w3.org/2000/svg" xmlns:xlink="http://www.w3.org/1999/xlink" x="0px" y="0px"
	 viewBox="0 0 21 27" style="enable-background:new 0 0 21 27;" xml:space="preserve">
<style type="text/css">
	.st0{fill:#FECD06;}
	.st1{fill:#081565;}
	.st2{fill:#FFFFFF;}
</style>
<g>
	<g>
		<path class="st0" d="M17.8,14.8c0.8-1.3,1.3-2.8,1.3-4.4c0-4.6-3.7-8.3-8.3-8.3s-8.3,3.7-8.3,8.3c0,1.8,0.6,3.4,1.5,4.8L11,25.7
			L17.8,14.8z M10.8,7.7c1.4,0,2.6,1.2,2.6,2.6s-1.2,2.6-2.6,2.6c-1.4,0-2.6-1.2-2.6-2.6S9.3,7.7,10.8,7.7z"/>
		<path class="st0" d="M10.3,26.2L3.3,15.7c-1.1-1.5-1.7-3.4-1.7-5.3c0-5.1,4.1-9.2,9.2-9.2c5.1,0,9.2,4.1,9.2,9.2
			c0,1.7-0.5,3.4-1.4,4.9l-6.8,10.9L10.3,26.2z M10.8,3c-4.1,0-7.4,3.3-7.4,7.4c0,1.5,0.5,3,1.4,4.3l6.2,9.4l6.1-9.8
			c0.8-1.2,1.2-2.6,1.2-4C18.2,6.3,14.9,3,10.8,3z M10.8,13.8c-1.9,0-3.5-1.5-3.5-3.5s1.5-3.5,3.5-3.5s3.5,1.5,3.5,3.5
			S12.7,13.8,10.8,13.8z M10.8,8.6c-0.9,0-1.7,0.8-1.7,1.7c0,0.9,0.8,1.7,1.7,1.7c0.9,0,1.7-0.8,1.7-1.7C12.5,9.4,11.7,8.6,10.8,8.6
			z"/>
	</g>
	<g>
		<ellipse class="st1" cx="10.8" cy="10.4" rx="7.2" ry="7.2"/>
	</g>
	<g>
		<g>
			<path class="st2" d="M10,10.6h1.5c0.3,0,0.5,0,0.6,0.1c0.1,0.1,0.2,0.2,0.2,0.4c0,0.1,0,0.2-0.1,0.3c-0.1,0.1-0.1,0.1-0.2,0.2
				c-0.1,0-0.2,0-0.4,0h-1.1c0.3,0.4,0.7,0.6,1.2,0.6c0.3,0,0.6,0,0.9-0.1c0.3-0.1,0.5-0.1,0.7-0.2c0.2-0.1,0.4-0.1,0.5-0.1
				c0.2,0,0.3,0.1,0.4,0.2c0.1,0.1,0.2,0.2,0.2,0.4c0,0.1-0.1,0.3-0.2,0.5c-0.1,0.2-0.3,0.4-0.6,0.6c-0.2,0.2-0.6,0.4-1,0.5
				c-0.4,0.1-0.9,0.2-1.4,0.2c-0.9,0-1.6-0.2-2.2-0.7c-0.6-0.5-1.1-1.1-1.3-1.8H7c-0.5,0-0.7-0.2-0.7-0.5c0-0.2,0-0.3,0.1-0.4
				c0.1-0.1,0.3-0.1,0.6-0.1h0.2V10H7c-0.5,0-0.7-0.2-0.7-0.5c0-0.1,0-0.2,0.1-0.3c0-0.1,0.1-0.1,0.2-0.2C6.7,9,6.8,9,7,9h0.4
				c0.3-0.8,0.7-1.4,1.3-1.9c0.6-0.5,1.4-0.7,2.3-0.7c0.3,0,0.6,0,0.8,0.1c0.3,0,0.5,0.1,0.7,0.2c0.2,0.1,0.4,0.2,0.6,0.3
				c0.2,0.1,0.3,0.2,0.5,0.3c0.1,0.1,0.2,0.2,0.3,0.3C14,7.7,14,7.8,14.1,7.9c0,0.1,0.1,0.2,0.1,0.2c0,0.1-0.1,0.3-0.2,0.4
				c-0.1,0.1-0.2,0.2-0.4,0.2c-0.1,0-0.3,0-0.5-0.1c-0.2-0.1-0.4-0.1-0.7-0.2c-0.3-0.1-0.5-0.1-0.9-0.1c-0.5,0-0.9,0.2-1.2,0.6h1.2
				c0.3,0,0.5,0,0.6,0.1c0.1,0.1,0.2,0.2,0.2,0.4c0,0.1,0,0.3-0.1,0.3S12,10,11.9,10c-0.1,0-0.2,0-0.4,0H10V10.6z"/>
		</g>
	</g>
</g>
</svg>
