<?xml version="1.0" encoding="utf-8"?>
<!-- Generator: Adobe Illustrator 24.0.0, SVG Export Plug-In . SVG Version: 6.00 Build 0)  -->
<svg version="1.1" id="Layer_1" xmlns="http://www.w3.org/2000/svg" xmlns:xlink="http://www.w3.org/1999/xlink" x="0px" y="0px"
	 viewBox="0 0 60 50" style="enable-background:new 0 0 60 50;" xml:space="preserve">
<style type="text/css">
	.st0{clip-path:url(#SVGID_2_);}
	.st1{clip-path:url(#SVGID_6_);}
	.st2{clip-path:url(#SVGID_10_);}
</style>
<g>
	<g>
		<defs>
			<path id="SVGID_1_" d="M16,16.6c-1.1,0-2-0.9-2-2c0-1.1,0.9-2,2-2h27.5c1.1,0,2,0.9,2,2c0,1.1-0.9,2-2,2H16"/>
		</defs>
		<clipPath id="SVGID_2_">
			<use xlink:href="#SVGID_1_"  style="overflow:visible;"/>
		</clipPath>
		<g class="st0">
			<defs>
				<rect id="SVGID_3_" x="-299.1" y="-21.4" width="360" height="7680"/>
			</defs>
			<clipPath id="SVGID_4_">
				<use xlink:href="#SVGID_3_"  style="overflow:visible;"/>
			</clipPath>
			<g style="clip-path:url(#SVGID_4_);">
				
					<image style="overflow:visible;" width="360" height="7680" xlink:href="818A12A02B0354A6.jpg"  transform="matrix(1 0 0 1 -299.1152 -21.4441)">
				</image>
			</g>
		</g>
	</g>
	<g>
		<defs>
			<path id="SVGID_5_" d="M16,26.6c-1.1,0-2-0.9-2-2c0-1.1,0.9-2,2-2h27.5c1.1,0,2,0.9,2,2c0,1.1-0.9,2-2,2H16"/>
		</defs>
		<clipPath id="SVGID_6_">
			<use xlink:href="#SVGID_5_"  style="overflow:visible;"/>
		</clipPath>
		<g class="st1">
			<defs>
				<rect id="SVGID_7_" x="-299.1" y="-21.4" width="360" height="7680"/>
			</defs>
			<clipPath id="SVGID_8_">
				<use xlink:href="#SVGID_7_"  style="overflow:visible;"/>
			</clipPath>
			<g style="clip-path:url(#SVGID_8_);">
				
					<image style="overflow:visible;" width="360" height="7680" xlink:href="818A12A02B0354AA.jpg"  transform="matrix(1 0 0 1 -299.1152 -21.4441)">
				</image>
			</g>
		</g>
	</g>
	<g>
		<defs>
			<path id="SVGID_9_" d="M16,36.6c-1.1,0-2-0.9-2-2s0.9-2,2-2h27.5c1.1,0,2,0.9,2,2s-0.9,2-2,2H16"/>
		</defs>
		<clipPath id="SVGID_10_">
			<use xlink:href="#SVGID_9_"  style="overflow:visible;"/>
		</clipPath>
		<g class="st2">
			<defs>
				<rect id="SVGID_11_" x="-299.1" y="-21.4" width="360" height="7680"/>
			</defs>
			<clipPath id="SVGID_12_">
				<use xlink:href="#SVGID_11_"  style="overflow:visible;"/>
			</clipPath>
			<g style="clip-path:url(#SVGID_12_);">
				
					<image style="overflow:visible;" width="360" height="7680" xlink:href="818A12A02B0354AD.jpg"  transform="matrix(1 0 0 1 -299.1152 -21.4441)">
				</image>
			</g>
		</g>
	</g>
</g>
</svg>
