<?xml version="1.0" encoding="utf-8"?>
<!-- Generator: Adobe Illustrator 24.0.0, SVG Export Plug-In . SVG Version: 6.00 Build 0)  -->
<svg version="1.1" id="Layer_1" xmlns="http://www.w3.org/2000/svg" xmlns:xlink="http://www.w3.org/1999/xlink" x="0px" y="0px"
	 viewBox="0 0 240 70" style="enable-background:new 0 0 240 70;" xml:space="preserve">
<style type="text/css">
	.st0{fill:#FFFFFF;}
	.st1{fill:#FCCB0C;}
	.st2{fill:#081565;}
	.st3{fill:#FDCC07;}
	.st4{fill:#201447;}
	.st5{opacity:0.5;}
	.st6{fill:#A890C3;}
	.st7{fill:#151235;}
	.st8{fill:#F19120;}
	.st9{fill:#FECD06;}
	.st10{fill:#F9C978;}
	.st11{fill:#FCE4B8;}
	.st12{fill:#EEB320;}
	.st13{opacity:0.8;}
	.st14{fill:#E6E7E8;}
</style>
<g>
	<g>
		<path class="st0" d="M75.2,55h159.3c2.5,0,4.5-2,4.5-4.5V37.8c0-2.5-2-4.5-4.5-4.5H75.2c-2.5,0-4.5,2-4.5,4.5v12.7
			C70.7,53,72.8,55,75.2,55z"/>
	</g>
	<g>
		<path class="st1" d="M73.6,29.7c-0.6,0-0.8-0.3-0.8-0.9v-3c0-0.6,0.3-0.9,0.8-0.9h6.2c0.4,0,0.6-0.3,0.6-0.7
			c0-0.6-0.2-0.8-0.6-0.9l-3.5-0.5c-2.2-0.4-3.6-1.4-3.6-4.2v-2.7c0-2.9,1.8-4.5,4.8-4.5H84c0.6,0,0.8,0.3,0.8,0.9v3
			c0,0.6-0.3,0.9-0.8,0.9h-5.4c-0.4,0-0.6,0.3-0.6,0.8c0,0.5,0.2,0.8,0.6,0.8l3.4,0.5c2.2,0.4,3.6,1.4,3.6,4.2v2.7
			c0,2.9-1.8,4.5-4.8,4.5H73.6z"/>
		<path class="st1" d="M87.8,28.7v-3c0-0.6,0.3-0.9,0.8-0.9H91v-8.6h-2.3c-0.6,0-0.8-0.3-0.8-0.9v-3.1c0-0.6,0.3-0.9,0.8-0.9h9.9
			c0.6,0,0.8,0.3,0.8,0.9v3.1c0,0.6-0.3,0.9-0.8,0.9h-2.2v8.6h2.2c0.6,0,0.8,0.3,0.8,0.9v3c0,0.6-0.3,0.9-0.8,0.9h-9.9
			C88.1,29.7,87.8,29.4,87.8,28.7z"/>
		<path class="st1" d="M109.2,30c-5.7,0-7.1-2.1-7.1-5.2V12.2c0-0.6,0.3-0.9,0.8-0.9h3.6c0.6,0,0.8,0.3,0.8,0.9v11.6
			c0,0.7,0.3,1.2,1.9,1.2c1.6,0,1.9-0.5,1.9-1.2V12.2c0-0.6,0.2-0.9,0.8-0.9h3.5c0.6,0,0.8,0.3,0.8,0.9v12.6
			C116.4,28,115,30,109.2,30z"/>
		<path class="st1" d="M120.3,29.7c-0.6,0-0.8-0.3-0.8-0.9V12.2c0-0.6,0.3-0.9,0.8-0.9h2.4c0.6,0,1,0.2,1.4,0.7l4.5,5.7v-5.4
			c0-0.6,0.3-0.9,0.8-0.9h3.5c0.6,0,0.8,0.3,0.8,0.9v16.5c0,0.6-0.3,0.9-0.8,0.9h-3.5c-0.6,0-0.8-0.3-0.8-0.9v-3.1l-4-5.3v8.4
			c0,0.6-0.3,0.9-0.8,0.9H120.3z"/>
		<path class="st1" d="M141,29.7c-0.6,0-0.8-0.3-0.8-0.9V16.2h-3.4c-0.6,0-0.8-0.3-0.8-0.9v-3.1c0-0.6,0.3-0.9,0.8-0.9H149
			c0.6,0,0.8,0.3,0.8,0.9v3.1c0,0.6-0.3,0.9-0.8,0.9h-3.4v12.5c0,0.6-0.3,0.9-0.8,0.9H141z"/>
		<path class="st1" d="M159.1,30c-5.7,0-7.1-2.1-7.1-5.2V12.2c0-0.6,0.3-0.9,0.8-0.9h3.6c0.6,0,0.8,0.3,0.8,0.9v11.6
			c0,0.7,0.3,1.2,1.9,1.2c1.6,0,1.9-0.5,1.9-1.2V12.2c0-0.6,0.2-0.9,0.8-0.9h3.5c0.6,0,0.8,0.3,0.8,0.9v12.6
			C166.2,28,164.8,30,159.1,30z"/>
		<path class="st1" d="M175.3,29.7c-0.6,0-0.8-0.3-0.8-0.9V12.2c0-0.6,0.3-0.9,0.8-0.9h7.4c3,0,4.4,1.2,4.4,3.9v1.2
			c0,1.4-0.4,2.3-1.4,2.8c2,0.2,2.9,1.5,2.9,3.9v2.3c0,2.9-1.4,4.2-4.5,4.2H175.3z M179.7,18.4h2c0.6,0,0.9-0.3,0.9-1v-0.7
			c0-0.7-0.3-1-0.9-1h-2V18.4z M179.7,25.3h3c0.6,0,0.9-0.3,0.9-1v-1c0-0.7-0.3-1-0.9-1h-3V25.3z"/>
		<path class="st1" d="M190.9,28.7v-3c0-0.6,0.3-0.9,0.8-0.9h2.3v-8.6h-2.3c-0.6,0-0.8-0.3-0.8-0.9v-3.1c0-0.6,0.3-0.9,0.8-0.9h9.9
			c0.6,0,0.8,0.3,0.8,0.9v3.1c0,0.6-0.3,0.9-0.8,0.9h-2.2v8.6h2.2c0.6,0,0.8,0.3,0.8,0.9v3c0,0.6-0.3,0.9-0.8,0.9h-9.9
			C191.1,29.7,190.9,29.4,190.9,28.7z"/>
		<path class="st1" d="M209.4,29.7c-0.6,0-0.8-0.3-0.8-0.9V16.2h-3.4c-0.6,0-0.8-0.3-0.8-0.9v-3.1c0-0.6,0.3-0.9,0.8-0.9h12.2
			c0.6,0,0.8,0.3,0.8,0.9v3.1c0,0.6-0.3,0.9-0.8,0.9h-3.4v12.5c0,0.6-0.3,0.9-0.8,0.9H209.4z"/>
		<path class="st1" d="M221.3,29.7c-0.6,0-0.8-0.3-0.8-0.9V12.2c0-0.6,0.3-0.9,0.8-0.9H232c0.6,0,0.8,0.3,0.8,0.9v3
			c0,0.6-0.3,0.9-0.8,0.9h-6.4v2h4.5c0.6,0,0.8,0.3,0.8,0.9v2.7c0,0.6-0.3,0.9-0.8,0.9h-4.5v2.2h6.4c0.6,0,0.8,0.3,0.8,0.9v3
			c0,0.6-0.3,0.9-0.8,0.9H221.3z"/>
	</g>
	<g>
		<path class="st1" d="M166,32h-3.9c-1,0-1.7-0.8-1.7-1.7v-0.4c0-1,0.8-1.7,1.7-1.7h3.9c1,0,1.7,0.8,1.7,1.7v0.4
			C167.8,31.2,167,32,166,32z"/>
	</g>
	<g>
		<g>
			<path class="st2" d="M86.5,48.1c0,0.4-0.1,0.8-0.4,1c-0.3,0.3-0.6,0.4-1.2,0.4c-0.1,0-0.3,0-0.4,0c-0.1,0-0.3-0.1-0.4-0.2
				c-0.1-0.1-0.3-0.2-0.4-0.2c-0.1-0.1-0.3-0.2-0.4-0.3s-0.3-0.3-0.4-0.3c-0.1-0.1-0.2-0.2-0.4-0.4c-0.2-0.2-0.3-0.3-0.4-0.4
				L79.2,45v3.2c0,0.5-0.1,0.8-0.3,1c-0.2,0.2-0.5,0.3-0.9,0.3c-0.4,0-0.8-0.1-1-0.3s-0.3-0.5-0.3-1v-7.1c0-0.6,0.1-1,0.4-1.3
				c0.3-0.3,0.7-0.4,1.3-0.4c0.4,0,0.7,0.1,0.9,0.2c0.2,0.1,0.5,0.3,0.8,0.6l3.8,3.7v-3.2c0-0.4,0.1-0.7,0.3-1
				c0.2-0.2,0.5-0.3,0.9-0.3c0.4,0,0.7,0.1,0.9,0.3c0.2,0.2,0.3,0.5,0.3,1V48.1z"/>
		</g>
		<g>
			<path class="st2" d="M97.7,41.1v4.4c0,1.4-0.4,2.5-1.1,3.1c-0.7,0.6-1.9,0.9-3.6,0.9c-1.6,0-2.8-0.3-3.5-1s-1.1-1.7-1.1-3v-4.4
				c0-0.5,0.2-0.9,0.5-1.3c0.3-0.3,0.7-0.5,1.2-0.5c0.6,0,1.1,0.1,1.4,0.3c0.3,0.2,0.5,0.7,0.5,1.3v4.8c0,0.3,0.1,0.6,0.2,0.8
				c0.1,0.2,0.2,0.3,0.4,0.4c0.2,0.1,0.4,0.1,0.6,0.1c0.3,0,0.5,0,0.6-0.1c0.2-0.1,0.3-0.2,0.4-0.3c0.1-0.1,0.1-0.3,0.2-0.4
				c0-0.1,0-0.3,0-0.5V41c0-0.3,0-0.6,0.1-0.8c0.1-0.2,0.2-0.4,0.4-0.5c0.2-0.1,0.4-0.2,0.5-0.2c0.2,0,0.4-0.1,0.7-0.1
				c0.6,0,1,0.1,1.3,0.4C97.6,40.1,97.7,40.5,97.7,41.1z"/>
		</g>
		<g>
			<path class="st2" d="M107.5,49c-0.8,0.4-1.7,0.6-2.7,0.6c-1,0-1.9-0.2-2.7-0.6c-0.8-0.4-1.4-1-1.9-1.7c-0.5-0.8-0.7-1.7-0.7-2.7
				c0-1.6,0.5-2.9,1.5-3.8s2.3-1.4,3.8-1.4c1.6,0,2.8,0.5,3.8,1.4c1,0.9,1.5,2.2,1.5,3.8c0,1.1-0.2,2-0.7,2.7S108.3,48.6,107.5,49z
				 M104.8,47.4c0.3,0,0.6-0.1,0.9-0.4c0.2-0.3,0.4-0.7,0.5-1.1c0.1-0.4,0.2-0.9,0.2-1.4c0-0.5-0.1-1-0.2-1.4
				c-0.1-0.4-0.3-0.8-0.5-1.1c-0.2-0.3-0.5-0.5-0.9-0.5c-0.3,0-0.6,0.2-0.9,0.5s-0.4,0.7-0.5,1.2c-0.1,0.5-0.2,0.9-0.2,1.4
				c0,0.5,0.1,1,0.2,1.4c0.1,0.4,0.3,0.8,0.5,1.1C104.2,47.3,104.4,47.4,104.8,47.4z"/>
		</g>
		<g>
			<path class="st2" d="M120,39.4c1.6,0,2.8,0.4,3.8,1.3s1.4,2.1,1.4,3.7c0,0.5,0,1-0.1,1.5c-0.1,0.5-0.3,0.9-0.5,1.4
				c-0.2,0.4-0.5,0.8-0.8,1.2s-0.8,0.6-1.3,0.8c-0.5,0.2-1.1,0.3-1.7,0.3h-3c-0.6,0-1.1-0.2-1.3-0.5c-0.3-0.3-0.4-0.9-0.4-1.7v-6.2
				c0-1.2,0.6-1.8,1.7-1.8H120z M119.5,47.5c0.3,0,0.5,0,0.7-0.1c0.2-0.1,0.4-0.2,0.6-0.3c0.2-0.1,0.3-0.3,0.4-0.6
				c0.1-0.2,0.2-0.5,0.3-0.9c0.1-0.4,0.1-0.8,0.1-1.3c0-0.6-0.1-1-0.2-1.4c-0.1-0.4-0.2-0.7-0.4-0.9c-0.2-0.2-0.4-0.3-0.6-0.4
				c-0.2-0.1-0.5-0.1-0.8-0.1V47.5z"/>
		</g>
		<g>
			<path class="st2" d="M136.2,41.1v4.4c0,1.4-0.4,2.5-1.1,3.1c-0.7,0.6-1.9,0.9-3.6,0.9c-1.6,0-2.8-0.3-3.5-1s-1.1-1.7-1.1-3v-4.4
				c0-0.5,0.2-0.9,0.5-1.3c0.3-0.3,0.7-0.5,1.2-0.5c0.6,0,1.1,0.1,1.4,0.3c0.3,0.2,0.5,0.7,0.5,1.3v4.8c0,0.3,0.1,0.6,0.2,0.8
				c0.1,0.2,0.2,0.3,0.4,0.4c0.2,0.1,0.4,0.1,0.6,0.1c0.3,0,0.5,0,0.6-0.1c0.2-0.1,0.3-0.2,0.4-0.3c0.1-0.1,0.1-0.3,0.2-0.4
				c0-0.1,0-0.3,0-0.5V41c0-0.3,0-0.6,0.1-0.8c0.1-0.2,0.2-0.4,0.4-0.5c0.2-0.1,0.4-0.2,0.5-0.2c0.2,0,0.4-0.1,0.7-0.1
				c0.6,0,1,0.1,1.3,0.4C136,40.1,136.2,40.5,136.2,41.1z"/>
		</g>
		<g>
			<path class="st2" d="M141.5,47.3c0,1.5-0.6,2.2-1.8,2.2c-0.6,0-1-0.2-1.3-0.5c-0.3-0.3-0.4-0.9-0.4-1.6v-6.2c0-0.6,0.2-1,0.5-1.3
				c0.3-0.3,0.7-0.5,1.3-0.5h3.2c1.2,0,2.3,0.3,3,0.8c0.8,0.6,1.2,1.3,1.2,2.2c0,0.7-0.1,1.2-0.4,1.6c-0.3,0.4-0.8,0.7-1.4,0.8
				c0.5,0,0.9,0.3,1.4,0.7c0.4,0.4,0.6,1,0.6,1.6c0,0.6-0.1,1.1-0.2,1.5s-0.3,0.6-0.5,0.7c-0.2,0.1-0.6,0.2-1,0.2
				c-0.6,0-1-0.1-1.3-0.4c-0.3-0.2-0.4-0.6-0.4-1.1c0-0.6-0.1-1.1-0.2-1.4c-0.1-0.3-0.3-0.5-0.5-0.6c-0.2-0.1-0.5-0.1-0.8-0.1
				l-0.8,0V47.3z M143.9,42.3c0-0.5-0.2-0.8-0.5-1c-0.4-0.2-1-0.3-1.8-0.3v2.6c0.8,0,1.4-0.1,1.8-0.3
				C143.7,43.1,143.9,42.8,143.9,42.3z"/>
		</g>
		<g>
			<path class="st2" d="M158.3,41.1v4.4c0,1.4-0.4,2.5-1.1,3.1c-0.7,0.6-1.9,0.9-3.6,0.9c-1.6,0-2.8-0.3-3.5-1s-1.1-1.7-1.1-3v-4.4
				c0-0.5,0.2-0.9,0.5-1.3c0.3-0.3,0.7-0.5,1.2-0.5c0.6,0,1.1,0.1,1.4,0.3c0.3,0.2,0.5,0.7,0.5,1.3v4.8c0,0.3,0.1,0.6,0.2,0.8
				c0.1,0.2,0.2,0.3,0.4,0.4c0.2,0.1,0.4,0.1,0.6,0.1c0.3,0,0.5,0,0.6-0.1c0.2-0.1,0.3-0.2,0.4-0.3c0.1-0.1,0.1-0.3,0.2-0.4
				c0-0.1,0-0.3,0-0.5V41c0-0.3,0-0.6,0.1-0.8c0.1-0.2,0.2-0.4,0.4-0.5c0.2-0.1,0.4-0.2,0.5-0.2c0.2,0,0.4-0.1,0.7-0.1
				c0.6,0,1,0.1,1.3,0.4C158.1,40.1,158.3,40.5,158.3,41.1z"/>
		</g>
		<g>
			<path class="st2" d="M169.3,47.3c0,0.8-0.1,1.3-0.4,1.7c-0.3,0.4-0.7,0.5-1.3,0.5c-0.6,0-1-0.2-1.3-0.5c-0.3-0.3-0.4-0.9-0.4-1.6
				v-6.2c0-1.2,0.6-1.8,1.7-1.8c0.6,0,1,0.1,1.3,0.3c0.3,0.2,0.4,0.7,0.4,1.3V47.3z"/>
		</g>
		<g>
			<path class="st2" d="M178.3,44.6c0.5,0.1,1,0.3,1.4,0.8c0.4,0.4,0.6,1,0.6,1.7c0,0.7-0.1,1.2-0.2,1.5c-0.1,0.3-0.3,0.6-0.5,0.7
				c-0.2,0.1-0.6,0.2-1.1,0.2c-0.4,0-0.7-0.1-1-0.2c-0.3-0.1-0.4-0.3-0.6-0.5c-0.1-0.2-0.2-0.5-0.2-0.8c0-0.4,0-0.8-0.1-1.1
				c0-0.3-0.1-0.5-0.1-0.7c-0.1-0.2-0.1-0.3-0.3-0.4c-0.1-0.1-0.2-0.1-0.3-0.2c-0.1,0-0.3,0-0.4,0h-0.8v1.6c0,0.8-0.2,1.4-0.5,1.7
				c-0.3,0.3-0.8,0.5-1.4,0.5c-0.6,0-1-0.2-1.3-0.5c-0.3-0.3-0.4-0.9-0.4-1.6v-6.2c0-0.6,0.1-1.1,0.4-1.4c0.2-0.3,0.6-0.5,1.2-0.5
				c0.3,0,0.6,0,0.8,0.1c0.2,0,0.4,0.1,0.6,0.2c0.2,0.1,0.3,0.3,0.4,0.5c0.1,0.2,0.1,0.5,0.1,0.8c0,0.3,0,0.6,0,1c0,0.4,0,0.6,0,0.8
				c0,0.1,0,0.2,0.1,0.3c0.1,0.1,0.2,0.2,0.3,0.2c0.1,0.1,0.3,0.1,0.5,0.1c0.4,0,0.7-0.2,0.9-0.5c0.1-0.3,0.2-1,0.2-2.1
				c0-0.5,0.1-0.9,0.4-1.1c0.3-0.2,0.7-0.4,1.4-0.4c0.7,0,1.1,0.1,1.4,0.4c0.2,0.3,0.3,0.7,0.3,1.4c0,1.1-0.2,1.9-0.6,2.5
				C179.3,44.2,178.8,44.6,178.3,44.6z"/>
		</g>
		<g>
			<path class="st2" d="M185.8,47.3c0,0.8-0.1,1.3-0.4,1.7c-0.3,0.4-0.7,0.5-1.3,0.5c-0.6,0-1-0.2-1.3-0.5c-0.3-0.3-0.4-0.9-0.4-1.6
				v-6.2c0-1.2,0.6-1.8,1.7-1.8c0.6,0,1,0.1,1.3,0.3c0.3,0.2,0.4,0.7,0.4,1.3V47.3z"/>
		</g>
		<g>
			<path class="st2" d="M195.1,39.4c1.6,0,2.8,0.4,3.8,1.3s1.4,2.1,1.4,3.7c0,0.5,0,1-0.1,1.5c-0.1,0.5-0.3,0.9-0.5,1.4
				c-0.2,0.4-0.5,0.8-0.8,1.2c-0.3,0.3-0.8,0.6-1.3,0.8c-0.5,0.2-1.1,0.3-1.7,0.3h-3c-0.6,0-1.1-0.2-1.3-0.5
				c-0.3-0.3-0.4-0.9-0.4-1.7v-6.2c0-1.2,0.6-1.8,1.7-1.8H195.1z M194.7,47.5c0.3,0,0.5,0,0.7-0.1c0.2-0.1,0.4-0.2,0.6-0.3
				c0.2-0.1,0.3-0.3,0.4-0.6c0.1-0.2,0.2-0.5,0.3-0.9c0.1-0.4,0.1-0.8,0.1-1.3c0-0.6-0.1-1-0.2-1.4c-0.1-0.4-0.2-0.7-0.4-0.9
				c-0.2-0.2-0.4-0.3-0.6-0.4c-0.2-0.1-0.5-0.1-0.8-0.1V47.5z"/>
		</g>
		<g>
			<path class="st2" d="M211.3,41.1v4.4c0,1.4-0.4,2.5-1.1,3.1c-0.7,0.6-1.9,0.9-3.6,0.9c-1.6,0-2.8-0.3-3.5-1
				c-0.8-0.7-1.1-1.7-1.1-3v-4.4c0-0.5,0.2-0.9,0.5-1.3c0.3-0.3,0.7-0.5,1.2-0.5c0.6,0,1.1,0.1,1.4,0.3c0.3,0.2,0.5,0.7,0.5,1.3v4.8
				c0,0.3,0.1,0.6,0.2,0.8c0.1,0.2,0.2,0.3,0.4,0.4c0.2,0.1,0.4,0.1,0.6,0.1c0.3,0,0.5,0,0.6-0.1c0.2-0.1,0.3-0.2,0.4-0.3
				c0.1-0.1,0.1-0.3,0.2-0.4c0-0.1,0-0.3,0-0.5V41c0-0.3,0-0.6,0.1-0.8c0.1-0.2,0.2-0.4,0.4-0.5c0.2-0.1,0.4-0.2,0.5-0.2
				c0.2,0,0.4-0.1,0.7-0.1c0.6,0,1,0.1,1.3,0.4C211.2,40.1,211.3,40.5,211.3,41.1z"/>
		</g>
		<g>
			<path class="st2" d="M216.7,47.3c0,1.5-0.6,2.2-1.8,2.2c-0.6,0-1-0.2-1.3-0.5c-0.3-0.3-0.4-0.9-0.4-1.6v-6.2c0-0.6,0.2-1,0.5-1.3
				c0.3-0.3,0.7-0.5,1.3-0.5h3.2c1.2,0,2.3,0.3,3,0.8c0.8,0.6,1.2,1.3,1.2,2.2c0,0.7-0.1,1.2-0.4,1.6c-0.3,0.4-0.8,0.7-1.4,0.8
				c0.5,0,0.9,0.3,1.4,0.7c0.4,0.4,0.6,1,0.6,1.6c0,0.6-0.1,1.1-0.2,1.5c-0.1,0.3-0.3,0.6-0.5,0.7c-0.2,0.1-0.6,0.2-1,0.2
				c-0.6,0-1-0.1-1.3-0.4c-0.3-0.2-0.4-0.6-0.4-1.1c0-0.6-0.1-1.1-0.2-1.4c-0.1-0.3-0.3-0.5-0.5-0.6c-0.2-0.1-0.5-0.1-0.8-0.1
				l-0.8,0V47.3z M219,42.3c0-0.5-0.2-0.8-0.5-1c-0.4-0.2-1-0.3-1.8-0.3v2.6c0.8,0,1.4-0.1,1.8-0.3C218.8,43.1,219,42.8,219,42.3z"
				/>
		</g>
		<g>
			<path class="st2" d="M233.4,41.1v4.4c0,1.4-0.4,2.5-1.1,3.1c-0.7,0.6-1.9,0.9-3.6,0.9c-1.6,0-2.8-0.3-3.5-1
				c-0.8-0.7-1.1-1.7-1.1-3v-4.4c0-0.5,0.2-0.9,0.5-1.3c0.3-0.3,0.7-0.5,1.2-0.5c0.6,0,1.1,0.1,1.4,0.3c0.3,0.2,0.5,0.7,0.5,1.3v4.8
				c0,0.3,0.1,0.6,0.2,0.8c0.1,0.2,0.2,0.3,0.4,0.4c0.2,0.1,0.4,0.1,0.6,0.1c0.3,0,0.5,0,0.6-0.1c0.2-0.1,0.3-0.2,0.4-0.3
				c0.1-0.1,0.1-0.3,0.2-0.4c0-0.1,0-0.3,0-0.5V41c0-0.3,0-0.6,0.1-0.8c0.1-0.2,0.2-0.4,0.4-0.5c0.2-0.1,0.4-0.2,0.5-0.2
				c0.2,0,0.4-0.1,0.7-0.1c0.6,0,1,0.1,1.3,0.4C233.3,40.1,233.4,40.5,233.4,41.1z"/>
		</g>
	</g>
	<g>
		<path class="st2" d="M158.5,50.1h-2.3c-0.6,0-1.1-0.5-1.1-1.1v-0.4c0-0.6,0.5-1.1,1.1-1.1h2.3c0.6,0,1.1,0.5,1.1,1.1V49
			C159.6,49.6,159.1,50.1,158.5,50.1z"/>
	</g>
	<g>
		<path class="st1" d="M228.4,9L228.4,9c-0.7,0.9-2.1,1.1-3,0.3l0,0c-0.9-0.7-1.1-2.1-0.3-3v0c0.7-0.9,2.1-1.1,3-0.3l0,0
			C229,6.7,229.2,8.1,228.4,9z"/>
	</g>
	<g>
		<path class="st2" d="M233.7,50.1h-2.3c-0.6,0-1.1-0.5-1.1-1.1v-0.4c0-0.6,0.5-1.1,1.1-1.1h2.3c0.6,0,1.1,0.5,1.1,1.1V49
			C234.8,49.6,234.3,50.1,233.7,50.1z"/>
	</g>
	<g>
		<g>
			<g>
				<path class="st0" d="M20.2,17.3c0,0-2.9-7.2,2.3-10.7s9.6,0.2,9.6,0.2s1.5-4,6.2-4.4c4.7-0.4,7.4,2,8.4,4.7
					c0.9,2.4,0.7,3.1,0.7,3.1h0.8V7.3c0,0-1.6-2.3,0.2-4.2c1.5-1.6,4.3-1.4,5.3-0.1c1.6,2,0.9,4.2-0.2,4.9c-1.6,0.9-0.9,2.8-0.7,2.8
					c0.4,0,2,0.3,2,0.3s0.1-1.1,0.2-2.7c0.1-1,0-1.2,0-1.2S53.7,4,56.8,2.6c1.6-0.7,3.8-0.4,4.8,1.7c1,2.1-0.3,3.7-1.7,4.2
					c-0.8,0.3-0.6,3.5-0.6,3.5s4.5,1.8,8.3,6.3c3.5,4.3,4.3,13.2,0.4,19.8C62.8,47,53.1,49.3,48.3,49.6s-6.4,0.1-9.8,1.2
					c-3.4,1.1-12.8,3.4-14.5,4s-6-2-3.8-6.5c1.3-2.6-2.3,0.2-6.5,0.1c-4.2-0.1-4.8-5.7-1.8-7.3c3.9-2.1-3.5,0.6-6.7,1.2
					c-5.5,1-6.5-7.2-1.5-8.9c8-2.7,11.9-4.1,11.9-4.1s-3.2-1.6-3.4-5.2c-0.1-2.9,2.1-4.3,4.6-5.3S20.2,17.3,20.2,17.3z"/>
			</g>
		</g>
		<g>
			<path class="st0" d="M12.1,49.7c-0.7,1.9-2.5,7.1-2.5,7.1s-1.3,2.9,0.2,4.1c2.3,1.9,5.5,5.3,7.6,7.1c0.7,0.6,2.8,1,4.2,0.8
				c2.6-0.5,6.7-1.4,9.1-1.9c1-0.2,1.9-0.4,2.5-2.6c0.7-2.4,2-5.3,2.4-7.9c0-0.3-0.7-4.6-0.7-4.6l-13.8-5L11,47
				C11,47,12.6,48.2,12.1,49.7z"/>
		</g>
		<g>
			<g>
				<path class="st2" d="M28.7,32.1l-15.4,5.2c-1.3,0.4-2.8-0.3-3.2-1.6l0,0c-0.4-1.3,0.3-2.8,1.6-3.2l15.4-5.2
					c1.3-0.4,2.8,0.3,3.2,1.6l0,0C30.8,30.2,30.1,31.6,28.7,32.1z"/>
			</g>
			<g>
				<path class="st3" d="M31.2,21.8l-12.8,4.3c-1.4,0.5-2.9-0.3-3.3-1.7l0,0c-0.5-1.4,0.3-2.9,1.7-3.3l12.8-4.3
					c1.4-0.5,2.9,0.3,3.3,1.7l0,0C33.3,19.8,32.5,21.3,31.2,21.8z"/>
			</g>
			<g>
				<path class="st4" d="M48.1,45.6l-15.4,4.9c-1.3,0.4-2.8-0.3-3.2-1.7l0,0c-0.4-1.3,0.3-2.8,1.7-3.2l15.4-4.9
					c1.3-0.4,2.8,0.3,3.2,1.7l0,0C50.2,43.7,49.4,45.1,48.1,45.6z"/>
			</g>
			<g>
				<path class="st2" d="M68,25.6c0.9,4.3-0.5,8.7-3.3,12.4c-0.1,0.1-0.1,0.2-0.2,0.2c-3.4,4.2-8.8,7.5-15.3,8.8
					c-0.6,0.1-1.3,0.2-1.9,0.3c-0.3,0-0.5,0.1-0.8,0.1c-0.1,0-0.3,0-0.4,0c-0.1,0-0.3,0-0.4,0c-4,0.3-7.8-0.2-11-1.4c0,0,0,0-0.1,0
					c-2.5-0.9-4.7-2.2-6.5-3.8c-0.7-0.6-2-1.8-3.1-3.8c-0.4-0.8-0.7-1.4-0.9-1.9c-1-2.4-0.9-4.6-0.9-4.6c0-3.7,1.5-7.4,4.1-10.5
					c0.6-0.7,1.2-1.4,2-2c0.6-0.6,1.3-1.1,2-1.6c0.6-0.4,1.1-0.8,1.7-1.2c0.4-0.3,0.9-0.5,1.4-0.8c0.3-0.2,0.6-0.3,0.9-0.4
					c0,0,0.1,0,0.1-0.1l0,0c0.1-0.1,0.2-0.1,0.4-0.2c0.5-0.2,1-0.5,1.6-0.7c0.1,0,0.2-0.1,0.3-0.1c0.2-0.1,0.5-0.2,0.7-0.3
					c0.1,0,0.3-0.1,0.4-0.1c0.1,0,0.1,0,0.2-0.1c0.2-0.1,0.3-0.1,0.5-0.2c0.1,0,0.3-0.1,0.4-0.1c0.8-0.2,1.7-0.5,2.5-0.6
					c0.5-0.1,1-0.2,1.4-0.3c0.7-0.1,1.5-0.2,2.2-0.2c0,0,0.1,0,0.2,0c1.1-0.1,2.2-0.1,3.3,0c-0.1-1.3,0-2.6,0.1-3.9
					c0.1-1.1,0.3-2.2,0.6-3.2c0.1-0.6,0.7-0.9,1.3-0.8c0.6,0.1,0.9,0.7,0.8,1.3c-0.2,1-0.4,2-0.5,3c-0.1,1.3-0.2,2.5-0.1,3.8
					c1.6,0.2,3.1,0.5,4.6,1c-0.1-1.3,0-2.6,0.1-3.9c0.1-1.2,0.3-2.3,0.5-3.5c0.1-0.6,0.7-0.9,1.2-0.8c0.6,0.1,0.9,0.7,0.8,1.2
					c-0.2,1-0.4,2.1-0.5,3.2c-0.1,1.5-0.1,3,0,4.5c4.6,2,8,5.4,9.4,9.7c0,0,0,0,0,0C67.8,24.6,67.9,25.1,68,25.6"/>
			</g>
			<g>
				<path class="st1" d="M34.4,15.8c0.3-0.2,0.6-0.3,0.9-0.4c0,0,0.1,0,0.1-0.1c0,0,0,0,0,0c0-1-0.1-2.1-0.6-3.1
					c-0.3-0.8-0.8-1.6-1.4-2.2c0,0,0,0,0,0c0-0.1-0.1-0.1-0.1-0.2c-1.9-1.9-4.7-2.6-7.2-1.6c-3.3,1.4-4.8,5.4-3.3,9
					c0.9,2.1,2.6,3.6,4.6,4.2c0.6-0.7,1.2-1.4,1.9-2C30.8,18,32.5,16.8,34.4,15.8"/>
			</g>
			<g>
				<path class="st1" d="M58.4,7.3c1.1-0.2,1.8-1.3,1.6-2.4c0-0.2-0.1-0.3-0.2-0.5l0,0c-0.5-0.6-1.2-0.9-2-0.7
					C56.8,3.9,56,5,56.3,6.1c0,0.2,0.1,0.3,0.2,0.5C56.9,7.2,57.7,7.5,58.4,7.3"/>
			</g>
			<g>
				<path class="st1" d="M39.4,13.8C35.5,15,32,17,29.3,19.4c-1.2,4.2-1.5,9-0.5,14c0.6,3.2,1.7,6.2,3.2,8.8c2.4,1.1,5.1,1.9,8,2.2
					c-3.1-2.7-5.5-6.9-6.5-11.9C31.9,24.5,34.5,16.9,39.4,13.8"/>
			</g>
			<g>
				<path class="st1" d="M51.2,7.2c1.1-0.2,1.8-1.3,1.6-2.4c0-0.2-0.1-0.3-0.2-0.5l0,0c-0.5-0.6-1.2-0.9-2-0.7
					c-1.1,0.2-1.8,1.3-1.6,2.4c0,0.2,0.1,0.3,0.2,0.5C49.7,7.1,50.4,7.4,51.2,7.2"/>
			</g>
			<g>
				<path class="st1" d="M61.3,16c-0.5-0.2-1.2-0.2-1.9-0.1c-1.6,0.3-2.8,1.4-3.7,2.9c-2.2-1.8-5.2-2.6-8.3-2
					c-2.8,0.6-5.1,2.2-6.6,4.5c-0.8,1.5-1.3,3.1-1.6,4.9l0,0c-0.2,1.5-0.2,3.1,0.1,4.7c1.3,6.7,7.1,11.3,13.7,11.5l0,0
					c9.1-3.4,15-10.9,14.5-18.5l0,0C66.5,20.6,64.1,17.8,61.3,16 M52.6,26.1c-0.6,0.1-1.2-0.5-1.3-1.3c-0.2-0.8,0.2-1.6,0.7-1.7
					c0.6-0.1,1.2,0.5,1.3,1.3C53.5,25.2,53.2,26,52.6,26.1 M60.8,29.2c-0.3,0.6-1,1.8-2.3,2.1c-0.1,0-0.1,0-0.2,0.1
					c-1.5,0.3-2.7-0.6-3.2-1c-0.4-0.3-0.6-1-0.4-1.6c0.2-0.5,0.7-0.6,1.1-0.3c0.3,0.2,1.1,0.9,2.2,0.6c0.9-0.2,1.3-1,1.5-1.4
					c0.2-0.5,0.7-0.5,1.1-0.1C60.9,28,61.1,28.7,60.8,29.2 M60.4,24.4c-0.6,0.1-1.2-0.5-1.3-1.3c-0.2-0.8,0.2-1.6,0.7-1.7
					c0.6-0.1,1.2,0.5,1.3,1.3C61.3,23.5,61,24.3,60.4,24.4"/>
			</g>
			<g class="st5">
				<path class="st6" d="M39,5c-2.7,0.2-4.9,2.2-5.7,4.8c0.1,0,0.1,0.1,0.1,0.2c0,0,0,0,0,0c0.6,0.6,1,1.3,1.4,2.2
					c0.4,1,0.6,2.1,0.6,3.1c1.3-0.6,2.6-1.1,4-1.6c1-0.3,2-0.6,3-0.8c1.2-0.2,2.5-0.4,3.7-0.5c0-0.4,0-0.7,0-1.1
					C45.7,7.6,42.6,4.7,39,5"/>
			</g>
			<g>
				<path class="st0" d="M33.1,16.6c-0.6,0.4-1.2,0.8-1.7,1.2c-0.5-0.7-1-1.4-1.5-2.1c-0.9-1.1-1.8-2.1-2.9-3
					c-0.4-0.4-0.5-1-0.1-1.5c0.4-0.4,1-0.5,1.5-0.1c1.2,1,2.2,2.1,3.2,3.2C32,15.1,32.6,15.8,33.1,16.6"/>
			</g>
			<g>
				<path class="st0" d="M41.3,8.5c-0.4,0.9-0.7,1.9-1,2.8c-0.2,0.7-0.4,1.5-0.5,2.3c-0.2,0-0.3,0.1-0.4,0.1c-0.2,0-0.3,0.1-0.5,0.2
					c-0.1,0-0.1,0-0.2,0.1c-0.1,0-0.3,0.1-0.4,0.1c-0.2,0.1-0.5,0.2-0.7,0.3c0.1-1.2,0.4-2.4,0.7-3.5c0.3-1.1,0.6-2.1,1-3.1
					c0.2-0.5,0.8-0.8,1.4-0.6C41.2,7.4,41.5,8,41.3,8.5"/>
			</g>
			<g>
				<path class="st7" d="M34.6,46.1L34.6,46.1c-2.5-0.9-4.7-2.2-6.5-3.8c-0.7-0.6-1.9-1.8-3-3.7l6.9,3.6
					C32.8,43.6,33.7,44.9,34.6,46.1"/>
			</g>
			<g>
				<path class="st8" d="M40,44.4c-0.2,0-0.4,0-0.6-0.1c-2.5-0.3-4.9-1-7-1.9l0,0l0,0c-0.1,0-0.2-0.1-0.3-0.2
					c0.8,1.4,1.6,2.7,2.6,3.9c0,0,0,0,0.1,0c3.3,1.2,7.1,1.7,11,1.4C43.7,47,41.8,45.9,40,44.4"/>
			</g>
			<g>
				<path class="st8" d="M67.7,24.2C67.7,24.2,67.7,24.2,67.7,24.2c0-0.1,0-0.1-0.1-0.2c0.4,7.8-5.3,14.9-14.5,18.5c0,0,0,0,0,0
					c1.2,0.1,4.4,0.2,7.8-1.7c0.4-0.2,0.9-0.5,1.3-0.8l0,0c0.1-0.1,0.2-0.1,0.3-0.2c0,0,0,0,0,0c0.8-0.6,1.4-1.2,2-1.8l0,0
					c0.1-0.1,0.1-0.1,0.1-0.2c2.9-3.7,4.2-8.1,3.3-12.4C67.9,25.1,67.8,24.6,67.7,24.2"/>
			</g>
			<g>
				<path class="st8" d="M58.7,7.7c1.1-0.2,1.9-1.3,1.6-2.4c-0.1-0.3-0.2-0.7-0.4-0.9C60,4.5,60,4.7,60.1,4.9
					c0.2,1.1-0.5,2.2-1.6,2.4c-0.8,0.2-1.5-0.2-2-0.7C56.8,7.4,57.7,7.9,58.7,7.7"/>
			</g>
			<g>
				<path class="st8" d="M51.5,7.6c1.1-0.2,1.9-1.3,1.6-2.4c-0.1-0.3-0.2-0.7-0.4-0.9c0.1,0.2,0.1,0.3,0.2,0.5
					c0.2,1.1-0.5,2.2-1.6,2.4c-0.8,0.2-1.5-0.2-2-0.7C49.6,7.3,50.5,7.8,51.5,7.6"/>
			</g>
			<g>
				<path class="st7" d="M64.5,38.1C64.5,38.1,64.5,38.1,64.5,38.1c-3.4,4.3-8.8,7.6-15.3,8.9c-0.9,0.2-1.8,0.3-2.7,0.4
					c-0.1,0-0.3,0-0.4,0c-0.1,0-0.3,0-0.4,0c-2-0.5-3.9-1.6-5.7-3.1c0.8,0,7.1-0.1,13.1-1.8l0,0c1.2,0.1,4.4,0.2,7.8-1.7
					c0.4-0.2,0.9-0.5,1.3-0.8l0,0c0,0,0.1-0.1,0.3-0.2c0,0,0,0,0,0C63.3,39.3,64,38.7,64.5,38.1L64.5,38.1z"/>
			</g>
			<g>
				<path class="st2" d="M26.1,52.1L26.1,52.1c-1.1,0.9-2.7,0.7-3.6-0.4l0,0c-0.9-1.1-0.7-2.7,0.4-3.5l0,0c1.1-0.9,2.7-0.7,3.6,0.4
					l0,0C27.4,49.6,27.2,51.2,26.1,52.1z"/>
			</g>
			<g>
				<path class="st9" d="M22.2,44.5l-5,1.7c-1.3,0.4-2.7-0.3-3.2-1.6l-0.1-0.2c-0.4-1.3,0.3-2.7,1.6-3.2l5-1.7
					c1.3-0.4,2.7,0.3,3.2,1.6l0.1,0.2C24.2,42.7,23.5,44.1,22.2,44.5z"/>
			</g>
			<g>
				<path class="st2" d="M6.9,39.4L6.9,39.4c-1.1,0.9-2.7,0.8-3.6-0.3l0,0c-0.9-1.1-0.8-2.7,0.3-3.6l0,0c1.1-0.9,2.7-0.8,3.6,0.3
					l0,0C8.2,37,8,38.5,6.9,39.4z"/>
			</g>
			<g>
				<path class="st1" d="M38,38.1l-3.2,4.2c-0.5,0.6-1.4,0.7-2,0.2l-0.1-0.1c-0.7-0.5-0.8-1.4-0.4-2c0,0,1.4-2.8,3-4
					c0.6-0.5,1.6-0.9,2.3-0.3l0.1,0.1C38.3,36.6,38.5,37.5,38,38.1z"/>
			</g>
			<g>
				<path class="st0" d="M33.6,43.5c-1.2-0.4-1.8-1.1-2.3-1.8c-0.2-0.3-0.3-0.8,0-1.2l0.1-0.1c0.3-0.4,1.1-0.7,1.2-0.3
					c0.1,0.8,1.4,1.6,2.5,1.8c0.4,0.1,0.1,0.7-0.2,1.1l-0.1,0.1C34.5,43.6,34,43.7,33.6,43.5z"/>
			</g>
			<g>
				<path class="st8" d="M34,41.6c2.6-1.7,4.2-3.9,4.2-3.9s-1,2.8-3.2,4.3C34.8,42.1,33.8,41.7,34,41.6z"/>
			</g>
			<g>
				<polygon class="st10" points="13.8,50.2 11,59 19.9,66.9 23.1,57 				"/>
			</g>
			<g>
				<polygon class="st11" points="13.9,50.3 23.7,49.7 33.6,56.4 23.1,57 				"/>
			</g>
			<g>
				<polygon class="st12" points="19.9,66.9 30.8,65.2 33.6,56.4 23.1,57 				"/>
			</g>
			<g class="st13">
				<polygon class="st1" points="16.2,56.2 17.3,52.8 27.2,52.1 28.7,53.1 19,54 17.8,57.5 				"/>
			</g>
			<g class="st13">
				<polygon class="st1" points="18,50 20.2,49.9 29.6,56.6 28.6,59.7 26.3,60 27.4,56.8 				"/>
			</g>
			<g>
				<path class="st9" d="M14,50.3c-0.1,0-0.1,0-0.1-0.1c0-0.1,0-0.1,0.1-0.2l14.2-6.3c0.1,0,0.1,0,0.2,0.1c0,0.1,0,0.1-0.1,0.2
					L14,50.3C14.1,50.3,14,50.3,14,50.3z"/>
			</g>
			<g>
				<path class="st9" d="M23.2,57C23.1,57,23.1,56.9,23.2,57c-0.1-0.1-0.2-0.2-0.1-0.2l9-9.6c0,0,0.1-0.1,0.1,0
					c0.1,0,0.1,0.1,0.1,0.1l1.3,8.9c0,0.1,0,0.1-0.1,0.2c-0.1,0-0.1,0-0.2-0.1l-1.2-8.6L23.2,57C23.2,56.9,23.2,57,23.2,57z"/>
			</g>
			<g>
				<path class="st9" d="M23.9,49.6C23.8,49.6,23.8,49.6,23.9,49.6c-0.1-0.1-0.2-0.2-0.1-0.2l4.1-5.5c0-0.1,0.1-0.1,0.2,0
					c0.1,0,0.1,0.1,0,0.2L24,49.6C23.9,49.6,23.9,49.6,23.9,49.6z"/>
			</g>
			<g>
				<path class="st0" d="M34.2,43.4L34.2,43.4C33.8,43,33.3,43,33,43.2c0-0.2-0.1-0.5-0.3-0.7l-0.1-0.1c-0.2-0.2-0.4-0.2-0.6-0.2
					c0.1-0.3-0.1-0.7-0.3-0.9l0.1-0.6c-0.4-0.3-1.3,0.2-1.6,0.5l-2,2.6c-0.3,0.4-0.2,0.9,0.2,1.3l0.1,0.1c0.2,0.2,0.4,0.2,0.6,0.2
					c-0.1,0.3,0.1,0.7,0.3,0.9l0.1,0.1c0.3,0.3,0.8,0.3,1.1,0.1c0,0.2,0.1,0.5,0.3,0.7l0.1,0.1c0.4,0.3,1,0.3,1.3,0l2.2-2.6
					c0.2-0.2,0.2-0.6,0.1-0.9C34.4,43.6,34.3,43.5,34.2,43.4z"/>
			</g>
			<g>
				<path class="st0" d="M34.5,44c0,0.1-0.5,1.4-0.2,2.2s-0.3,1-0.3,1s-0.7,0.2-1-0.8c-0.3-0.9-0.4-1.3-0.2-1.7
					C33,44.4,34.5,44,34.5,44z"/>
			</g>
			<g>
				<path class="st14" d="M34.2,45.9c0,0-0.7,0-0.6-0.6c0.1-0.4,0.5-0.1,0.6-0.7c0-0.6-0.4-1-0.6-1.1c-0.1-0.1,0.2-0.4,0.8-0.4
					c0.5,0,0.9-0.6,0.9-0.6s-0.1,1-0.6,1.2c-0.5,0.2,0.1,0-0.1,0.8C34.4,45.2,34.2,45.6,34.2,45.9z"/>
			</g>
			<g>
				<path class="st14" d="M31.6,43.8c0,0-0.8,1-1,1.5C30.5,45.8,30.8,43.3,31.6,43.8z"/>
			</g>
			<g>
				<path class="st14" d="M29.7,44.5c-0.1,0.4,0.1-1.8,0.9-1.3C30.6,43.1,29.8,44,29.7,44.5"/>
			</g>
		</g>
	</g>
</g>
</svg>
