<?xml version="1.0" encoding="utf-8"?>
<!-- Generator: Adobe Illustrator 24.0.0, SVG Export Plug-In . SVG Version: 6.00 Build 0)  -->
<svg version="1.1" id="Layer_1" xmlns="http://www.w3.org/2000/svg" xmlns:xlink="http://www.w3.org/1999/xlink" x="0px" y="0px"
	 viewBox="0 0 160 50" style="enable-background:new 0 0 160 50;" xml:space="preserve">
<style type="text/css">
	.st0{fill:#FFFFFF;}
	.st1{fill:#FAC90C;}
	.st2{fill:#081565;}
	.st3{fill:#FBCA07;}
	.st4{fill:#201447;}
	.st5{opacity:0.5;}
	.st6{fill:#A68EC1;}
	.st7{fill:#151235;}
	.st8{fill:#EF8F20;}
	.st9{fill:#FECD06;}
	.st10{fill:#F7C778;}
	.st11{fill:#FAE2B6;}
	.st12{fill:#ECB120;}
	.st13{opacity:0.8;}
	.st14{fill:#E4E5E6;}
</style>
<g>
	<g>
		<path class="st0" d="M50.9,38.1h104.8c1.6,0,3-1.3,3-3v-8.4c0-1.6-1.3-3-3-3H50.9c-1.6,0-3,1.3-3,3v8.4
			C47.9,36.8,49.3,38.1,50.9,38.1z"/>
	</g>
	<g>
		<path class="st1" d="M49.8,21.5c-0.4,0-0.5-0.2-0.5-0.6v-2c0-0.4,0.2-0.6,0.5-0.6h4.1c0.3,0,0.4-0.2,0.4-0.5
			c0-0.4-0.1-0.5-0.4-0.6l-2.3-0.4c-1.4-0.2-2.4-0.9-2.4-2.8v-1.8c0-1.9,1.2-2.9,3.1-2.9h4.3c0.4,0,0.5,0.2,0.5,0.6v2
			c0,0.4-0.2,0.6-0.5,0.6h-3.5c-0.3,0-0.4,0.2-0.4,0.5s0.2,0.5,0.4,0.5l2.3,0.3c1.4,0.2,2.4,0.9,2.4,2.8v1.8c0,1.9-1.2,2.9-3.1,2.9
			H49.8z"/>
		<path class="st1" d="M59.2,20.9v-2c0-0.4,0.2-0.6,0.5-0.6h1.5v-5.6h-1.5c-0.4,0-0.5-0.2-0.5-0.6v-2c0-0.4,0.2-0.6,0.5-0.6h6.5
			c0.4,0,0.5,0.2,0.5,0.6v2c0,0.4-0.2,0.6-0.5,0.6h-1.5v5.6h1.5c0.4,0,0.5,0.2,0.5,0.6v2c0,0.4-0.2,0.6-0.5,0.6h-6.5
			C59.3,21.5,59.2,21.3,59.2,20.9z"/>
		<path class="st1" d="M73.2,21.7c-3.8,0-4.7-1.4-4.7-3.4V10c0-0.4,0.2-0.6,0.5-0.6h2.4c0.4,0,0.5,0.2,0.5,0.6v7.6
			c0,0.5,0.2,0.8,1.2,0.8c1.1,0,1.3-0.3,1.3-0.8V10c0-0.4,0.2-0.6,0.5-0.6h2.3c0.4,0,0.5,0.2,0.5,0.6v8.3
			C77.9,20.4,77,21.7,73.2,21.7z"/>
		<path class="st1" d="M80.5,21.5c-0.4,0-0.5-0.2-0.5-0.6V10c0-0.4,0.2-0.6,0.5-0.6h1.6c0.4,0,0.6,0.1,0.9,0.5l3,3.7V10
			c0-0.4,0.2-0.6,0.5-0.6h2.3c0.4,0,0.5,0.2,0.5,0.6v10.9c0,0.4-0.2,0.6-0.5,0.6h-2.3c-0.4,0-0.5-0.2-0.5-0.6v-2.1l-2.6-3.5v5.5
			c0,0.4-0.2,0.6-0.5,0.6H80.5z"/>
		<path class="st1" d="M94.1,21.5c-0.4,0-0.5-0.2-0.5-0.6v-8.2h-2.2c-0.4,0-0.5-0.2-0.5-0.6v-2c0-0.4,0.2-0.6,0.5-0.6h8
			c0.4,0,0.5,0.2,0.5,0.6v2c0,0.4-0.2,0.6-0.5,0.6h-2.2v8.2c0,0.4-0.2,0.6-0.5,0.6H94.1z"/>
		<path class="st1" d="M106,21.7c-3.8,0-4.7-1.4-4.7-3.4V10c0-0.4,0.2-0.6,0.5-0.6h2.4c0.4,0,0.5,0.2,0.5,0.6v7.6
			c0,0.5,0.2,0.8,1.2,0.8c1.1,0,1.3-0.3,1.3-0.8V10c0-0.4,0.2-0.6,0.5-0.6h2.3c0.4,0,0.5,0.2,0.5,0.6v8.3
			C110.7,20.4,109.8,21.7,106,21.7z"/>
		<path class="st1" d="M116.7,21.5c-0.4,0-0.5-0.2-0.5-0.6V10c0-0.4,0.2-0.6,0.5-0.6h4.9c2,0,2.9,0.8,2.9,2.6v0.8
			c0,0.9-0.3,1.5-0.9,1.8c1.3,0.1,1.9,1,1.9,2.6v1.5c0,1.9-0.9,2.7-3,2.7H116.7z M119.6,14.1h1.3c0.4,0,0.6-0.2,0.6-0.7v-0.5
			c0-0.5-0.2-0.7-0.6-0.7h-1.3V14.1z M119.6,18.6h2c0.4,0,0.6-0.2,0.6-0.7v-0.7c0-0.5-0.2-0.7-0.6-0.7h-2V18.6z"/>
		<path class="st1" d="M126.9,20.9v-2c0-0.4,0.2-0.6,0.5-0.6h1.5v-5.6h-1.5c-0.4,0-0.5-0.2-0.5-0.6v-2c0-0.4,0.2-0.6,0.5-0.6h6.5
			c0.4,0,0.5,0.2,0.5,0.6v2c0,0.4-0.2,0.6-0.5,0.6h-1.5v5.6h1.5c0.4,0,0.5,0.2,0.5,0.6v2c0,0.4-0.2,0.6-0.5,0.6h-6.5
			C127.1,21.5,126.9,21.3,126.9,20.9z"/>
		<path class="st1" d="M139.1,21.5c-0.4,0-0.5-0.2-0.5-0.6v-8.2h-2.2c-0.4,0-0.5-0.2-0.5-0.6v-2c0-0.4,0.2-0.6,0.5-0.6h8
			c0.4,0,0.5,0.2,0.5,0.6v2c0,0.4-0.2,0.6-0.5,0.6h-2.2v8.2c0,0.4-0.2,0.6-0.5,0.6H139.1z"/>
		<path class="st1" d="M146.9,21.5c-0.4,0-0.5-0.2-0.5-0.6V10c0-0.4,0.2-0.6,0.5-0.6h7.1c0.4,0,0.5,0.2,0.5,0.6v2
			c0,0.4-0.2,0.6-0.5,0.6h-4.2v1.3h3c0.4,0,0.5,0.2,0.5,0.6v1.8c0,0.4-0.2,0.6-0.5,0.6h-3v1.4h4.2c0.4,0,0.5,0.2,0.5,0.6v2
			c0,0.4-0.2,0.6-0.5,0.6H146.9z"/>
	</g>
	<g>
		<path class="st1" d="M110.6,23H108c-0.6,0-1.1-0.5-1.1-1.1v-0.3c0-0.6,0.5-1.1,1.1-1.1h2.5c0.6,0,1.1,0.5,1.1,1.1v0.3
			C111.7,22.5,111.2,23,110.6,23z"/>
	</g>
	<g>
		<g>
			<path class="st2" d="M58.3,33.6c0,0.3-0.1,0.5-0.3,0.7c-0.2,0.2-0.4,0.2-0.8,0.2c-0.1,0-0.2,0-0.3,0c-0.1,0-0.2-0.1-0.3-0.1
				c-0.1-0.1-0.2-0.1-0.3-0.1c-0.1,0-0.2-0.1-0.3-0.2c-0.1-0.1-0.2-0.2-0.3-0.2c-0.1-0.1-0.2-0.1-0.3-0.3c-0.1-0.1-0.2-0.2-0.3-0.3
				l-1.8-1.7v2.1c0,0.3-0.1,0.5-0.2,0.7c-0.1,0.1-0.3,0.2-0.6,0.2c-0.3,0-0.5-0.1-0.6-0.2c-0.1-0.1-0.2-0.3-0.2-0.7V29
				c0-0.4,0.1-0.6,0.3-0.8c0.2-0.2,0.5-0.3,0.8-0.3c0.2,0,0.4,0,0.6,0.1s0.3,0.2,0.5,0.4l2.5,2.4v-2.1c0-0.3,0.1-0.5,0.2-0.6
				c0.1-0.1,0.3-0.2,0.6-0.2c0.3,0,0.5,0.1,0.6,0.2c0.1,0.1,0.2,0.3,0.2,0.6V33.6z"/>
		</g>
		<g>
			<path class="st2" d="M65.7,29v2.9c0,0.9-0.2,1.6-0.7,2c-0.5,0.4-1.3,0.6-2.4,0.6c-1.1,0-1.8-0.2-2.3-0.7c-0.5-0.4-0.7-1.1-0.7-2
				V29c0-0.3,0.1-0.6,0.3-0.8c0.2-0.2,0.5-0.3,0.8-0.3c0.4,0,0.7,0.1,0.9,0.2c0.2,0.1,0.3,0.4,0.3,0.9v3.2c0,0.2,0,0.4,0.1,0.5
				c0.1,0.1,0.1,0.2,0.3,0.3c0.1,0,0.2,0.1,0.4,0.1c0.2,0,0.3,0,0.4-0.1c0.1,0,0.2-0.1,0.2-0.2c0-0.1,0.1-0.2,0.1-0.3
				c0-0.1,0-0.2,0-0.3v-3.2c0-0.2,0-0.4,0.1-0.6c0.1-0.1,0.1-0.3,0.3-0.3c0.1-0.1,0.2-0.1,0.4-0.1c0.1,0,0.3,0,0.4,0
				c0.4,0,0.7,0.1,0.9,0.3C65.6,28.3,65.7,28.6,65.7,29z"/>
		</g>
		<g>
			<path class="st2" d="M72.1,34.2c-0.5,0.3-1.1,0.4-1.8,0.4c-0.7,0-1.2-0.1-1.8-0.4c-0.5-0.3-0.9-0.6-1.3-1.2
				c-0.3-0.5-0.5-1.1-0.5-1.8c0-1,0.3-1.9,1-2.5c0.6-0.6,1.5-0.9,2.5-0.9c1,0,1.9,0.3,2.5,0.9c0.7,0.6,1,1.5,1,2.5
				c0,0.7-0.2,1.3-0.5,1.8C73,33.6,72.6,33.9,72.1,34.2z M70.3,33.2c0.2,0,0.4-0.1,0.6-0.3c0.2-0.2,0.3-0.4,0.3-0.7
				c0.1-0.3,0.1-0.6,0.1-0.9c0-0.3,0-0.6-0.1-0.9c-0.1-0.3-0.2-0.5-0.4-0.8c-0.2-0.2-0.4-0.3-0.6-0.3c-0.2,0-0.4,0.1-0.6,0.3
				c-0.2,0.2-0.3,0.5-0.4,0.8c-0.1,0.3-0.1,0.6-0.1,0.9c0,0.3,0,0.6,0.1,0.9c0.1,0.3,0.2,0.5,0.4,0.7C69.9,33.1,70.1,33.2,70.3,33.2
				z"/>
		</g>
		<g>
			<path class="st2" d="M80.3,27.9c1,0,1.9,0.3,2.5,0.9s0.9,1.4,0.9,2.4c0,0.3,0,0.7-0.1,1c-0.1,0.3-0.2,0.6-0.3,0.9
				c-0.1,0.3-0.3,0.6-0.5,0.8c-0.2,0.2-0.5,0.4-0.8,0.5c-0.3,0.1-0.7,0.2-1.1,0.2h-2c-0.4,0-0.7-0.1-0.9-0.3
				c-0.2-0.2-0.3-0.6-0.3-1.1V29c0-0.8,0.4-1.2,1.1-1.2H80.3z M80,33.2c0.2,0,0.3,0,0.5-0.1c0.1,0,0.3-0.1,0.4-0.2
				c0.1-0.1,0.2-0.2,0.3-0.4c0.1-0.2,0.1-0.4,0.2-0.6c0-0.2,0.1-0.5,0.1-0.9c0-0.4,0-0.7-0.1-0.9c-0.1-0.3-0.2-0.4-0.3-0.6
				c-0.1-0.1-0.3-0.2-0.4-0.3c-0.1-0.1-0.3-0.1-0.5-0.1V33.2z"/>
		</g>
		<g>
			<path class="st2" d="M91,29v2.9c0,0.9-0.2,1.6-0.7,2c-0.5,0.4-1.3,0.6-2.4,0.6c-1.1,0-1.8-0.2-2.3-0.7c-0.5-0.4-0.7-1.1-0.7-2V29
				c0-0.3,0.1-0.6,0.3-0.8c0.2-0.2,0.5-0.3,0.8-0.3c0.4,0,0.7,0.1,0.9,0.2c0.2,0.1,0.3,0.4,0.3,0.9v3.2c0,0.2,0,0.4,0.1,0.5
				c0.1,0.1,0.1,0.2,0.3,0.3c0.1,0,0.2,0.1,0.4,0.1c0.2,0,0.3,0,0.4-0.1c0.1,0,0.2-0.1,0.2-0.2c0-0.1,0.1-0.2,0.1-0.3
				c0-0.1,0-0.2,0-0.3v-3.2c0-0.2,0-0.4,0.1-0.6c0.1-0.1,0.1-0.3,0.3-0.3c0.1-0.1,0.2-0.1,0.4-0.1c0.1,0,0.3,0,0.4,0
				c0.4,0,0.7,0.1,0.9,0.3C90.9,28.3,91,28.6,91,29z"/>
		</g>
		<g>
			<path class="st2" d="M94.5,33.1c0,1-0.4,1.5-1.2,1.5c-0.4,0-0.7-0.1-0.9-0.3c-0.2-0.2-0.3-0.6-0.3-1.1V29c0-0.4,0.1-0.7,0.3-0.9
				c0.2-0.2,0.5-0.3,0.8-0.3h2.1c0.8,0,1.5,0.2,2,0.6c0.5,0.4,0.8,0.8,0.8,1.4c0,0.4-0.1,0.8-0.3,1c-0.2,0.2-0.5,0.4-0.9,0.5
				c0.3,0,0.6,0.2,0.9,0.5c0.3,0.3,0.4,0.6,0.4,1.1c0,0.4,0,0.8-0.1,1c-0.1,0.2-0.2,0.4-0.4,0.5c-0.2,0.1-0.4,0.1-0.6,0.1
				c-0.4,0-0.7-0.1-0.9-0.2c-0.2-0.2-0.3-0.4-0.3-0.7c0-0.4,0-0.7-0.1-0.9c-0.1-0.2-0.2-0.4-0.3-0.4s-0.3-0.1-0.5-0.1l-0.5,0V33.1z
				 M96,29.8c0-0.3-0.1-0.5-0.3-0.6C95.4,29.1,95,29,94.5,29v1.7c0.5,0,0.9-0.1,1.2-0.2C95.9,30.4,96,30.1,96,29.8z"/>
		</g>
		<g>
			<path class="st2" d="M105.5,29v2.9c0,0.9-0.2,1.6-0.7,2c-0.5,0.4-1.3,0.6-2.4,0.6c-1.1,0-1.8-0.2-2.3-0.7c-0.5-0.4-0.7-1.1-0.7-2
				V29c0-0.3,0.1-0.6,0.3-0.8c0.2-0.2,0.5-0.3,0.8-0.3c0.4,0,0.7,0.1,0.9,0.2c0.2,0.1,0.3,0.4,0.3,0.9v3.2c0,0.2,0,0.4,0.1,0.5
				c0.1,0.1,0.1,0.2,0.3,0.3c0.1,0,0.2,0.1,0.4,0.1c0.2,0,0.3,0,0.4-0.1c0.1,0,0.2-0.1,0.2-0.2c0-0.1,0.1-0.2,0.1-0.3
				c0-0.1,0-0.2,0-0.3v-3.2c0-0.2,0-0.4,0.1-0.6c0.1-0.1,0.1-0.3,0.3-0.3c0.1-0.1,0.2-0.1,0.4-0.1c0.1,0,0.3,0,0.4,0
				c0.4,0,0.7,0.1,0.9,0.3C105.4,28.3,105.5,28.6,105.5,29z"/>
		</g>
		<g>
			<path class="st2" d="M112.7,33.1c0,0.5-0.1,0.9-0.3,1.1c-0.2,0.2-0.5,0.3-0.9,0.3c-0.4,0-0.7-0.1-0.9-0.3
				c-0.2-0.2-0.3-0.6-0.3-1.1V29c0-0.8,0.4-1.2,1.1-1.2c0.4,0,0.7,0.1,0.9,0.2c0.2,0.1,0.3,0.4,0.3,0.9V33.1z"/>
		</g>
		<g>
			<path class="st2" d="M118.7,31.3c0.3,0,0.6,0.2,0.9,0.5c0.3,0.3,0.4,0.7,0.4,1.1c0,0.4,0,0.8-0.1,1c-0.1,0.2-0.2,0.4-0.3,0.4
				c-0.2,0.1-0.4,0.1-0.7,0.1c-0.3,0-0.5,0-0.6-0.1c-0.2-0.1-0.3-0.2-0.4-0.3c-0.1-0.1-0.1-0.3-0.1-0.5c0-0.3,0-0.5,0-0.7
				c0-0.2-0.1-0.3-0.1-0.5c0-0.1-0.1-0.2-0.2-0.3c-0.1-0.1-0.1-0.1-0.2-0.1c-0.1,0-0.2,0-0.3,0h-0.5v1.1c0,0.5-0.1,0.9-0.3,1.1
				c-0.2,0.2-0.5,0.3-0.9,0.3c-0.4,0-0.7-0.1-0.9-0.3s-0.3-0.6-0.3-1.1v-4c0-0.4,0.1-0.7,0.2-0.9c0.2-0.2,0.4-0.3,0.8-0.3
				c0.2,0,0.4,0,0.5,0c0.1,0,0.3,0.1,0.4,0.1c0.1,0.1,0.2,0.2,0.3,0.3c0.1,0.1,0.1,0.3,0.1,0.6c0,0.2,0,0.4,0,0.7c0,0.2,0,0.4,0,0.5
				c0,0.1,0,0.2,0.1,0.2c0,0.1,0.1,0.1,0.2,0.1c0.1,0,0.2,0.1,0.3,0.1c0.3,0,0.5-0.1,0.6-0.3c0.1-0.2,0.1-0.7,0.1-1.3
				c0-0.3,0.1-0.6,0.3-0.7s0.5-0.2,0.9-0.2c0.4,0,0.7,0.1,0.9,0.3c0.2,0.2,0.2,0.5,0.2,0.9c0,0.7-0.1,1.3-0.4,1.7
				C119.3,31.1,119,31.3,118.7,31.3z"/>
		</g>
		<g>
			<path class="st2" d="M123.6,33.1c0,0.5-0.1,0.9-0.3,1.1c-0.2,0.2-0.5,0.3-0.9,0.3c-0.4,0-0.7-0.1-0.9-0.3
				c-0.2-0.2-0.3-0.6-0.3-1.1V29c0-0.8,0.4-1.2,1.1-1.2c0.4,0,0.7,0.1,0.9,0.2c0.2,0.1,0.3,0.4,0.3,0.9V33.1z"/>
		</g>
		<g>
			<path class="st2" d="M129.7,27.9c1,0,1.9,0.3,2.5,0.9s0.9,1.4,0.9,2.4c0,0.3,0,0.7-0.1,1c-0.1,0.3-0.2,0.6-0.3,0.9
				c-0.1,0.3-0.3,0.6-0.5,0.8c-0.2,0.2-0.5,0.4-0.8,0.5c-0.3,0.1-0.7,0.2-1.1,0.2h-2c-0.4,0-0.7-0.1-0.9-0.3
				c-0.2-0.2-0.3-0.6-0.3-1.1V29c0-0.8,0.4-1.2,1.1-1.2H129.7z M129.4,33.2c0.2,0,0.3,0,0.5-0.1c0.1,0,0.3-0.1,0.4-0.2
				c0.1-0.1,0.2-0.2,0.3-0.4c0.1-0.2,0.1-0.4,0.2-0.6c0-0.2,0.1-0.5,0.1-0.9c0-0.4,0-0.7-0.1-0.9c-0.1-0.3-0.2-0.4-0.3-0.6
				c-0.1-0.1-0.3-0.2-0.4-0.3c-0.1-0.1-0.3-0.1-0.5-0.1V33.2z"/>
		</g>
		<g>
			<path class="st2" d="M140.4,29v2.9c0,0.9-0.2,1.6-0.7,2c-0.5,0.4-1.3,0.6-2.4,0.6c-1.1,0-1.8-0.2-2.3-0.7c-0.5-0.4-0.7-1.1-0.7-2
				V29c0-0.3,0.1-0.6,0.3-0.8c0.2-0.2,0.5-0.3,0.8-0.3c0.4,0,0.7,0.1,0.9,0.2c0.2,0.1,0.3,0.4,0.3,0.9v3.2c0,0.2,0,0.4,0.1,0.5
				c0.1,0.1,0.1,0.2,0.3,0.3c0.1,0,0.2,0.1,0.4,0.1c0.2,0,0.3,0,0.4-0.1c0.1,0,0.2-0.1,0.2-0.2c0.1-0.1,0.1-0.2,0.1-0.3
				c0-0.1,0-0.2,0-0.3v-3.2c0-0.2,0-0.4,0.1-0.6c0.1-0.1,0.1-0.3,0.3-0.3c0.1-0.1,0.2-0.1,0.4-0.1c0.1,0,0.3,0,0.4,0
				c0.4,0,0.7,0.1,0.9,0.3C140.3,28.3,140.4,28.6,140.4,29z"/>
		</g>
		<g>
			<path class="st2" d="M143.9,33.1c0,1-0.4,1.5-1.2,1.5c-0.4,0-0.7-0.1-0.9-0.3c-0.2-0.2-0.3-0.6-0.3-1.1V29c0-0.4,0.1-0.7,0.3-0.9
				c0.2-0.2,0.5-0.3,0.8-0.3h2.1c0.8,0,1.5,0.2,2,0.6c0.5,0.4,0.8,0.8,0.8,1.4c0,0.4-0.1,0.8-0.3,1c-0.2,0.2-0.5,0.4-0.9,0.5
				c0.3,0,0.6,0.2,0.9,0.5c0.3,0.3,0.4,0.6,0.4,1.1c0,0.4,0,0.8-0.1,1c-0.1,0.2-0.2,0.4-0.4,0.5c-0.2,0.1-0.4,0.1-0.6,0.1
				c-0.4,0-0.7-0.1-0.9-0.2c-0.2-0.2-0.3-0.4-0.3-0.7c0-0.4,0-0.7-0.1-0.9c-0.1-0.2-0.2-0.4-0.3-0.4c-0.1-0.1-0.3-0.1-0.5-0.1
				l-0.5,0V33.1z M145.4,29.8c0-0.3-0.1-0.5-0.3-0.6c-0.2-0.1-0.6-0.2-1.2-0.2v1.7c0.5,0,0.9-0.1,1.2-0.2
				C145.3,30.4,145.4,30.1,145.4,29.8z"/>
		</g>
		<g>
			<path class="st2" d="M154.9,29v2.9c0,0.9-0.2,1.6-0.7,2c-0.5,0.4-1.3,0.6-2.4,0.6c-1.1,0-1.8-0.2-2.3-0.7c-0.5-0.4-0.7-1.1-0.7-2
				V29c0-0.3,0.1-0.6,0.3-0.8c0.2-0.2,0.5-0.3,0.8-0.3c0.4,0,0.7,0.1,0.9,0.2c0.2,0.1,0.3,0.4,0.3,0.9v3.2c0,0.2,0,0.4,0.1,0.5
				c0.1,0.1,0.1,0.2,0.3,0.3c0.1,0,0.2,0.1,0.4,0.1c0.2,0,0.3,0,0.4-0.1c0.1,0,0.2-0.1,0.2-0.2c0.1-0.1,0.1-0.2,0.1-0.3
				c0-0.1,0-0.2,0-0.3v-3.2c0-0.2,0-0.4,0.1-0.6c0.1-0.1,0.1-0.3,0.3-0.3c0.1-0.1,0.2-0.1,0.4-0.1c0.1,0,0.3,0,0.4,0
				c0.4,0,0.7,0.1,0.9,0.3C154.8,28.3,154.9,28.6,154.9,29z"/>
		</g>
	</g>
	<g>
		<path class="st2" d="M105.6,34.9h-1.5c-0.4,0-0.7-0.3-0.7-0.7V34c0-0.4,0.3-0.7,0.7-0.7h1.5c0.4,0,0.7,0.3,0.7,0.7v0.2
			C106.3,34.6,106,34.9,105.6,34.9z"/>
	</g>
	<g>
		<path class="st1" d="M151.6,7.9L151.6,7.9c-0.5,0.6-1.4,0.7-2,0.2l0,0c-0.6-0.5-0.7-1.4-0.2-2v0c0.5-0.6,1.4-0.7,2-0.2l0,0
			C152,6.4,152.1,7.3,151.6,7.9z"/>
	</g>
	<g>
		<path class="st2" d="M155.1,34.9h-1.5c-0.4,0-0.7-0.3-0.7-0.7V34c0-0.4,0.3-0.7,0.7-0.7h1.5c0.4,0,0.7,0.3,0.7,0.7v0.2
			C155.8,34.6,155.5,34.9,155.1,34.9z"/>
	</g>
	<g>
		<g>
			<g>
				<path class="st0" d="M14.7,13.3c0,0-1.9-4.7,1.5-7s6.3,0.1,6.3,0.1s1-2.6,4.1-2.9c3.1-0.3,4.8,1.3,5.5,3.1c0.6,1.6,0.5,2,0.5,2
					h0.5V6.8c0,0-1.1-1.5,0.1-2.8c1-1,2.8-1,3.5-0.1c1.1,1.3,0.6,2.7-0.1,3.2C35.6,7.8,36,9,36.2,9c0.3,0,1.3,0.2,1.3,0.2
					s0-0.7,0.2-1.8c0.1-0.6,0-0.8,0-0.8s-0.9-2,1.1-2.9c1.1-0.5,2.5-0.3,3.2,1.1c0.7,1.4-0.2,2.4-1.1,2.8c-0.5,0.2-0.4,2.3-0.4,2.3
					s3,1.2,5.5,4.2c2.3,2.8,2.8,8.7,0.3,13c-3.4,5.9-9.8,7.3-13,7.5c-3.1,0.2-4.2,0.1-6.5,0.8s-8.4,2.3-9.5,2.6s-4-1.3-2.5-4.3
					c0.9-1.7-1.5,0.2-4.3,0.1S7.3,30,9.2,29c2.5-1.4-2.3,0.4-4.4,0.8c-3.6,0.7-4.3-4.8-1-5.9c5.3-1.8,7.8-2.7,7.8-2.7
					s-2.1-1-2.2-3.4c-0.1-1.9,1.4-2.8,3-3.5S14.7,13.3,14.7,13.3z"/>
			</g>
		</g>
		<g>
			<path class="st0" d="M9.4,34.7c-0.5,1.3-1.6,4.7-1.6,4.7s-0.8,1.9,0.1,2.7c1.5,1.3,3.6,3.5,5,4.7c0.5,0.4,1.9,0.7,2.8,0.5
				c1.7-0.3,4.4-0.9,6-1.2c0.7-0.1,1.2-0.3,1.7-1.7c0.5-1.6,1.3-3.5,1.6-5.2c0-0.2-0.4-3-0.4-3l-9.1-3.3l-6.6,0.2
				C8.6,32.9,9.7,33.7,9.4,34.7z"/>
		</g>
		<g>
			<g>
				<path class="st2" d="M20.3,23.1l-10.1,3.4c-0.9,0.3-1.8-0.2-2.1-1.1l0,0c-0.3-0.9,0.2-1.8,1.1-2.1l10.1-3.4
					c0.9-0.3,1.8,0.2,2.1,1.1l0,0C21.7,21.8,21.2,22.8,20.3,23.1z"/>
			</g>
			<g>
				<path class="st3" d="M21.9,16.3l-8.4,2.8c-0.9,0.3-1.9-0.2-2.2-1.1l0,0c-0.3-0.9,0.2-1.9,1.1-2.2l8.4-2.8
					c0.9-0.3,1.9,0.2,2.2,1.1l0,0C23.3,15,22.8,16,21.9,16.3z"/>
			</g>
			<g>
				<path class="st4" d="M33,31.9l-10.2,3.2C22,35.5,21,35,20.8,34.1l0,0c-0.3-0.9,0.2-1.8,1.1-2.1L32,28.8c0.9-0.3,1.8,0.2,2.1,1.1
					l0,0C34.4,30.7,33.9,31.7,33,31.9z"/>
			</g>
			<g>
				<path class="st2" d="M46.1,18.8c0.6,2.8-0.3,5.7-2.2,8.1c0,0-0.1,0.1-0.1,0.1c-2.2,2.8-5.8,5-10.1,5.8c-0.4,0.1-0.8,0.1-1.3,0.2
					c-0.2,0-0.3,0-0.5,0.1c-0.1,0-0.2,0-0.2,0c-0.1,0-0.2,0-0.3,0c-2.6,0.2-5.1-0.1-7.3-0.9c0,0,0,0,0,0c-1.6-0.6-3.1-1.4-4.3-2.5
					c-0.5-0.4-1.3-1.2-2-2.5c-0.3-0.5-0.5-1-0.6-1.3c-0.7-1.6-0.6-3-0.6-3c0-2.5,1-4.9,2.7-6.9c0.4-0.5,0.8-0.9,1.3-1.3
					c0.4-0.4,0.8-0.7,1.3-1.1c0.4-0.3,0.7-0.5,1.1-0.8c0.3-0.2,0.6-0.4,0.9-0.5c0.2-0.1,0.4-0.2,0.6-0.3c0,0,0.1,0,0.1,0l0,0
					c0.1,0,0.2-0.1,0.2-0.1c0.3-0.2,0.7-0.3,1-0.4c0.1,0,0.1,0,0.2-0.1c0.2-0.1,0.3-0.1,0.5-0.2c0.1,0,0.2-0.1,0.3-0.1
					c0,0,0.1,0,0.1,0c0.1,0,0.2-0.1,0.3-0.1c0.1,0,0.2-0.1,0.3-0.1c0.5-0.2,1.1-0.3,1.7-0.4c0.3-0.1,0.6-0.1,0.9-0.2
					c0.5-0.1,1-0.1,1.5-0.2c0,0,0.1,0,0.1,0c0.7,0,1.4-0.1,2.1,0c0-0.9,0-1.7,0.1-2.6c0.1-0.7,0.2-1.4,0.4-2.1
					c0.1-0.4,0.5-0.6,0.8-0.5c0.4,0.1,0.6,0.5,0.5,0.8c-0.2,0.6-0.3,1.3-0.3,1.9c-0.1,0.8-0.1,1.7-0.1,2.5c1.1,0.1,2.1,0.4,3,0.7
					c0-0.9,0-1.7,0.1-2.5c0.1-0.8,0.2-1.5,0.3-2.3c0.1-0.4,0.4-0.6,0.8-0.5c0.4,0.1,0.6,0.4,0.5,0.8c-0.1,0.7-0.3,1.4-0.3,2.1
					c-0.1,1-0.1,1.9,0,2.9c3,1.3,5.3,3.6,6.2,6.4c0,0,0,0,0,0C46,18.2,46.1,18.5,46.1,18.8"/>
			</g>
			<g>
				<path class="st1" d="M24,12.4c0.2-0.1,0.4-0.2,0.6-0.3c0,0,0,0,0.1,0c0,0,0,0,0,0c0-0.7-0.1-1.4-0.4-2.1c-0.2-0.5-0.5-1-0.9-1.4
					c0,0,0,0,0,0c0,0-0.1-0.1-0.1-0.1c-1.2-1.2-3.1-1.7-4.7-1c-2.2,0.9-3.2,3.6-2.2,5.9c0.6,1.4,1.7,2.4,3,2.7
					c0.4-0.5,0.8-0.9,1.3-1.3C21.7,13.9,22.8,13.1,24,12.4"/>
			</g>
			<g>
				<path class="st1" d="M39.8,6.8c0.7-0.1,1.2-0.9,1.1-1.6c0-0.1-0.1-0.2-0.1-0.3l0,0c-0.3-0.4-0.8-0.6-1.3-0.5
					c-0.7,0.1-1.2,0.9-1.1,1.6c0,0.1,0.1,0.2,0.1,0.3C38.8,6.7,39.3,6.9,39.8,6.8"/>
			</g>
			<g>
				<path class="st1" d="M27.3,11c-2.6,0.8-4.9,2.1-6.6,3.7c-0.8,2.7-1,5.9-0.3,9.2c0.4,2.1,1.2,4.1,2.1,5.8
					c1.6,0.7,3.3,1.2,5.2,1.4c-2-1.8-3.6-4.5-4.3-7.8C22.4,18.1,24.1,13.1,27.3,11"/>
			</g>
			<g>
				<path class="st1" d="M35.1,6.7c0.7-0.1,1.2-0.9,1.1-1.6c0-0.1-0.1-0.2-0.1-0.3l0,0c-0.3-0.4-0.8-0.6-1.3-0.5
					c-0.7,0.1-1.2,0.9-1.1,1.6c0,0.1,0.1,0.2,0.1,0.3C34.1,6.6,34.6,6.8,35.1,6.7"/>
			</g>
			<g>
				<path class="st1" d="M41.7,12.5c-0.3-0.2-0.8-0.1-1.3,0c-1,0.2-1.9,0.9-2.5,1.9c-1.5-1.2-3.4-1.7-5.4-1.3
					c-1.9,0.4-3.4,1.5-4.3,3c-0.5,1-0.9,2.1-1,3.2l0,0c-0.1,1-0.1,2,0.1,3.1c0.9,4.4,4.7,7.5,9,7.6l0,0c6-2.2,9.9-7.2,9.5-12.2l0,0
					C45.2,15.6,43.6,13.7,41.7,12.5 M36,19.1c-0.4,0.1-0.8-0.3-0.9-0.8c-0.1-0.5,0.1-1,0.5-1.1c0.4-0.1,0.8,0.3,0.9,0.8
					C36.6,18.6,36.4,19.1,36,19.1 M41.4,21.2c-0.2,0.4-0.7,1.2-1.5,1.4c0,0-0.1,0-0.1,0c-1,0.2-1.8-0.4-2.1-0.7
					c-0.3-0.2-0.4-0.7-0.2-1c0.1-0.3,0.4-0.4,0.7-0.2c0.2,0.1,0.7,0.6,1.4,0.4c0.6-0.2,0.9-0.7,1-0.9c0.2-0.3,0.5-0.4,0.7-0.1
					C41.5,20.4,41.6,20.8,41.4,21.2 M41.2,18c-0.4,0.1-0.8-0.3-0.9-0.8c-0.1-0.5,0.1-1,0.5-1.1c0.4-0.1,0.8,0.3,0.9,0.8
					C41.7,17.5,41.5,18,41.2,18"/>
			</g>
			<g class="st5">
				<path class="st6" d="M27,5.3c-1.8,0.1-3.2,1.4-3.7,3.1c0,0,0.1,0.1,0.1,0.1c0,0,0,0,0,0c0.4,0.4,0.7,0.9,0.9,1.4
					c0.3,0.7,0.4,1.4,0.4,2.1c0.8-0.4,1.7-0.7,2.6-1c0.6-0.2,1.3-0.4,2-0.5c0.8-0.2,1.6-0.3,2.4-0.3c0-0.2,0-0.5,0-0.7
					C31.5,7,29.4,5.1,27,5.3"/>
			</g>
			<g>
				<path class="st0" d="M23.1,12.9c-0.4,0.2-0.8,0.5-1.1,0.8c-0.3-0.5-0.6-0.9-1-1.4c-0.6-0.7-1.2-1.4-1.9-2
					c-0.3-0.2-0.3-0.7-0.1-1c0.2-0.3,0.7-0.3,1-0.1c0.8,0.7,1.5,1.4,2.1,2.1C22.5,11.9,22.8,12.4,23.1,12.9"/>
			</g>
			<g>
				<path class="st0" d="M28.5,7.6c-0.2,0.6-0.5,1.2-0.6,1.9c-0.1,0.5-0.2,1-0.3,1.5c-0.1,0-0.2,0.1-0.3,0.1c-0.1,0-0.2,0.1-0.3,0.1
					c0,0-0.1,0-0.1,0c-0.1,0-0.2,0.1-0.3,0.1c-0.2,0.1-0.3,0.1-0.5,0.2c0.1-0.8,0.2-1.6,0.4-2.3c0.2-0.7,0.4-1.4,0.7-2
					c0.1-0.4,0.5-0.5,0.9-0.4C28.5,6.8,28.7,7.2,28.5,7.6"/>
			</g>
			<g>
				<path class="st7" d="M24.2,32.3L24.2,32.3c-1.6-0.6-3.1-1.4-4.3-2.5c-0.4-0.4-1.3-1.2-2-2.4l4.6,2.4
					C23,30.7,23.5,31.5,24.2,32.3"/>
			</g>
			<g>
				<path class="st8" d="M27.7,31.2c-0.1,0-0.3,0-0.4,0c-1.7-0.2-3.2-0.6-4.6-1.3l0,0l0,0c-0.1,0-0.1-0.1-0.2-0.1
					c0.5,0.9,1.1,1.8,1.7,2.5c0,0,0,0,0,0c2.2,0.8,4.7,1.1,7.3,0.9C30.2,32.9,28.9,32.2,27.7,31.2"/>
			</g>
			<g>
				<path class="st8" d="M45.9,17.9C45.9,17.9,45.9,17.9,45.9,17.9c0-0.1,0-0.1,0-0.1c0.3,5.1-3.5,9.8-9.5,12.2c0,0,0,0,0,0
					c0.8,0.1,2.9,0.1,5.2-1.1c0.3-0.2,0.6-0.3,0.8-0.5l0,0c0.1,0,0.1-0.1,0.2-0.1c0,0,0,0,0,0c0.5-0.4,0.9-0.8,1.3-1.2l0,0
					c0,0,0.1-0.1,0.1-0.1c1.9-2.4,2.8-5.3,2.2-8.1C46.1,18.5,46,18.2,45.9,17.9"/>
			</g>
			<g>
				<path class="st8" d="M40,7.1c0.7-0.1,1.2-0.9,1.1-1.6c0-0.2-0.1-0.4-0.3-0.6c0,0.1,0.1,0.2,0.1,0.3c0.1,0.7-0.3,1.5-1.1,1.6
					c-0.5,0.1-1-0.1-1.3-0.5C38.8,6.9,39.4,7.2,40,7.1"/>
			</g>
			<g>
				<path class="st8" d="M35.3,7c0.7-0.1,1.2-0.9,1.1-1.6c0-0.2-0.1-0.4-0.3-0.6c0,0.1,0.1,0.2,0.1,0.3c0.1,0.7-0.3,1.5-1.1,1.6
					c-0.5,0.1-1-0.1-1.3-0.5C34,6.8,34.6,7.1,35.3,7"/>
			</g>
			<g>
				<path class="st7" d="M43.8,27C43.8,27.1,43.8,27.1,43.8,27c-2.2,2.8-5.8,5-10.1,5.8c-0.6,0.1-1.2,0.2-1.8,0.3
					c-0.1,0-0.2,0-0.2,0c-0.1,0-0.2,0-0.3,0c-1.3-0.3-2.6-1-3.7-2c0.5,0,4.7-0.1,8.6-1.2l0,0c0.8,0.1,2.9,0.1,5.2-1.1
					c0.3-0.2,0.6-0.3,0.8-0.5l0,0c0,0,0.1-0.1,0.2-0.1c0,0,0,0,0,0C43,27.8,43.5,27.4,43.8,27L43.8,27z"/>
			</g>
			<g>
				<path class="st2" d="M18.6,36.2L18.6,36.2c-0.7,0.6-1.8,0.4-2.3-0.3l0,0c-0.6-0.7-0.4-1.8,0.3-2.3h0c0.7-0.6,1.8-0.4,2.3,0.3
					l0,0C19.4,34.6,19.3,35.7,18.6,36.2z"/>
			</g>
			<g>
				<path class="st9" d="M16,31.3l-3.3,1.1c-0.9,0.3-1.8-0.2-2.1-1l-0.1-0.2c-0.3-0.9,0.2-1.8,1-2.1l3.3-1.1c0.9-0.3,1.8,0.2,2.1,1
					l0.1,0.2C17.3,30.1,16.9,31,16,31.3z"/>
			</g>
			<g>
				<path class="st2" d="M6,27.9L6,27.9c-0.7,0.6-1.8,0.5-2.3-0.2l0,0C3,27,3.1,25.9,3.8,25.4l0,0c0.7-0.6,1.8-0.5,2.3,0.2l0,0
					C6.8,26.3,6.7,27.3,6,27.9z"/>
			</g>
			<g>
				<path class="st1" d="M26.4,27l-2.1,2.8c-0.3,0.4-0.9,0.4-1.3,0.1l-0.1-0.1c-0.4-0.3-0.6-0.9-0.3-1.3c0,0,0.9-1.8,2-2.7
					c0.4-0.3,1.1-0.6,1.5-0.2l0.1,0.1C26.6,26,26.7,26.6,26.4,27z"/>
			</g>
			<g>
				<path class="st0" d="M23.5,30.6c-0.8-0.3-1.2-0.7-1.5-1.2c-0.2-0.2-0.2-0.5,0-0.8l0-0.1c0.2-0.3,0.7-0.5,0.8-0.2
					c0.1,0.5,0.9,1.1,1.6,1.2c0.3,0,0.1,0.5-0.1,0.8l0,0.1C24.1,30.7,23.8,30.7,23.5,30.6z"/>
			</g>
			<g>
				<path class="st8" d="M23.8,29.4c1.7-1.1,2.8-2.5,2.8-2.5s-0.6,1.9-2.1,2.8C24.3,29.7,23.6,29.4,23.8,29.4z"/>
			</g>
			<g>
				<polygon class="st10" points="10.5,35 8.6,40.8 14.5,46 16.6,39.5 				"/>
			</g>
			<g>
				<polygon class="st11" points="10.5,35 17,34.7 23.5,39.1 16.6,39.5 				"/>
			</g>
			<g>
				<polygon class="st12" points="14.5,46 21.6,44.8 23.5,39.1 16.6,39.5 				"/>
			</g>
			<g class="st13">
				<polygon class="st1" points="12,39 12.8,36.7 19.3,36.2 20.3,36.9 13.9,37.5 13.1,39.8 				"/>
			</g>
			<g class="st13">
				<polygon class="st1" points="13.3,34.9 14.7,34.8 20.9,39.2 20.2,41.2 18.7,41.5 19.4,39.3 				"/>
			</g>
			<g>
				<path class="st9" d="M10.6,35.1C10.6,35.1,10.6,35,10.6,35.1c-0.1-0.1-0.1-0.2,0-0.2l9.3-4.2c0,0,0.1,0,0.1,0c0,0,0,0.1,0,0.1
					L10.6,35.1C10.6,35.1,10.6,35.1,10.6,35.1z"/>
			</g>
			<g>
				<path class="st9" d="M16.6,39.4C16.6,39.4,16.6,39.4,16.6,39.4c-0.1-0.1-0.1-0.1-0.1-0.2l5.9-6.3c0,0,0.1,0,0.1,0
					c0,0,0.1,0,0.1,0.1l0.8,5.8c0,0,0,0.1-0.1,0.1c0,0-0.1,0-0.1-0.1l-0.8-5.7L16.6,39.4C16.7,39.4,16.7,39.4,16.6,39.4z"/>
			</g>
			<g>
				<path class="st9" d="M17.1,34.6C17.1,34.6,17.1,34.6,17.1,34.6c-0.1,0-0.1-0.1-0.1-0.1l2.7-3.6c0,0,0.1,0,0.1,0c0,0,0,0.1,0,0.1
					L17.1,34.6C17.2,34.6,17.1,34.6,17.1,34.6z"/>
			</g>
			<g>
				<path class="st0" d="M23.9,30.5L23.9,30.5c-0.3-0.2-0.5-0.2-0.8-0.1c0-0.2-0.1-0.3-0.2-0.5l0,0c-0.1-0.1-0.3-0.2-0.4-0.2
					c0-0.2,0-0.4-0.2-0.6l0.1-0.4c-0.3-0.2-0.9,0.1-1.1,0.3l-1.3,1.7c-0.2,0.2-0.2,0.6,0.1,0.8l0,0c0.1,0.1,0.3,0.2,0.4,0.2
					c0,0.2,0,0.4,0.2,0.6l0,0c0.2,0.2,0.5,0.2,0.7,0.1c0,0.2,0.1,0.3,0.2,0.5l0,0c0.3,0.2,0.6,0.2,0.8,0l1.4-1.7
					c0.1-0.2,0.2-0.4,0.1-0.6C24,30.7,24,30.6,23.9,30.5z"/>
			</g>
			<g>
				<path class="st0" d="M24.1,30.9c0,0-0.3,0.9-0.1,1.5c0.2,0.5-0.2,0.7-0.2,0.7s-0.5,0.1-0.7-0.5c-0.2-0.6-0.3-0.9-0.1-1.1
					C23.1,31.2,24.1,30.9,24.1,30.9z"/>
			</g>
			<g>
				<path class="st14" d="M23.9,32.1c0,0-0.5,0-0.4-0.4c0.1-0.3,0.4-0.1,0.4-0.5c0-0.4-0.3-0.7-0.4-0.7c-0.1,0,0.1-0.2,0.5-0.3
					c0.3,0,0.6-0.4,0.6-0.4s-0.1,0.6-0.4,0.8c-0.3,0.1,0,0-0.1,0.5C24,31.7,23.9,32,23.9,32.1z"/>
			</g>
			<g>
				<path class="st14" d="M22.2,30.8c0,0-0.5,0.7-0.6,1S21.6,30.5,22.2,30.8z"/>
			</g>
			<g>
				<path class="st14" d="M20.9,31.2c-0.1,0.3,0-1.2,0.6-0.9C21.5,30.3,21,30.9,20.9,31.2"/>
			</g>
		</g>
	</g>
</g>
</svg>
