<?xml version="1.0" encoding="utf-8"?>
<!-- Generator: Adobe Illustrator 24.0.0, SVG Export Plug-In . SVG Version: 6.00 Build 0)  -->
<svg version="1.1" id="Layer_1" xmlns="http://www.w3.org/2000/svg" xmlns:xlink="http://www.w3.org/1999/xlink" x="0px" y="0px"
	 viewBox="0 0 45 45" style="enable-background:new 0 0 45 45;" xml:space="preserve">
<style type="text/css">
	.st0{fill:#1D067C;stroke:#1D067C;stroke-width:1.0028;stroke-miterlimit:10;}
	.st1{fill:#1D067C;stroke:#1D067C;stroke-width:0.6268;stroke-miterlimit:10;}
</style>
<g>
	<g>
		<path class="st0" d="M22.4,10.2c0.1,0,0.1,0,0.2,0c0.1,0,0.1,0,0.2,0c1.5,0,3,0.3,4.4,1c3.6,1.7,5.9,4.5,6.7,8.4
			c0.1,0.4,0.1,0.9,0.2,1.3c0,0.5,0,1,0,1.5c0,0.1,0,0.1,0,0.2c-0.2,0.8-0.2,1.6-0.5,2.4c-1.8,5.9-7.9,9.3-13.8,7.8
			c-5.9-1.5-9.7-7.4-8.5-13.4c1.1-5.3,5.6-9.1,11-9.3C22.3,10.3,22.3,10.2,22.4,10.2z M32.6,21.8c0-5.5-4.5-10.1-10-10.1
			c-5.7,0-10.1,4.4-10.2,10.1c0,5.6,4.6,10.1,10.2,10.1C28.1,31.8,32.6,27.3,32.6,21.8z"/>
		<path class="st1" d="M21.3,18.8c0-1.3,0-2.6,0-3.9c0-0.3,0.2-0.6,0.5-0.7c0.3-0.1,0.6,0,0.8,0.2c0.1,0.2,0.2,0.4,0.2,0.6
			c0,2.2,0,4.4,0,6.6c0,0.5,0.1,0.7,0.6,0.9c1.3,0.5,2.6,1.1,3.9,1.7c0.4,0.2,0.6,0.6,0.5,1c-0.2,0.4-0.6,0.6-1,0.4
			c-1-0.4-2.1-0.9-3.1-1.3c-0.6-0.2-1.2-0.5-1.7-0.7c-0.4-0.2-0.6-0.4-0.6-0.9C21.3,21.4,21.3,20.1,21.3,18.8z"/>
		<path class="st0" d="M29,22.5c-0.2,0-0.3,0-0.5,0c-0.3-0.1-0.6-0.4-0.6-0.7c0-0.3,0.2-0.6,0.6-0.7c0.3,0,0.7,0,1,0
			c0.3,0,0.6,0.3,0.6,0.7c0,0.3-0.2,0.6-0.6,0.7C29.4,22.5,29.2,22.5,29,22.5z"/>
		<path class="st0" d="M15.9,22.5c-0.2,0-0.3,0-0.5,0c-0.3-0.1-0.6-0.4-0.6-0.7c0-0.3,0.2-0.7,0.6-0.7c0.3,0,0.7,0,1,0
			c0.4,0,0.6,0.3,0.6,0.7c0,0.3-0.2,0.6-0.6,0.7C16.3,22.5,16.1,22.5,15.9,22.5z"/>
		<path class="st0" d="M21.8,28.3c0-0.1,0-0.3,0-0.4c0-0.4,0.3-0.7,0.7-0.6c0.4,0,0.7,0.3,0.7,0.7c0,0.3,0,0.6,0,0.8
			c0,0.4-0.3,0.7-0.7,0.7c-0.4,0-0.7-0.3-0.7-0.7C21.8,28.6,21.8,28.5,21.8,28.3z"/>
	</g>
</g>
</svg>
