<?xml version="1.0" encoding="utf-8"?>
<!-- Generator: Adobe Illustrator 24.0.0, SVG Export Plug-In . SVG Version: 6.00 Build 0)  -->
<svg version="1.1" id="Layer_1" xmlns="http://www.w3.org/2000/svg" xmlns:xlink="http://www.w3.org/1999/xlink" x="0px" y="0px"
	 viewBox="0 0 45 45" style="enable-background:new 0 0 45 45;" xml:space="preserve">
<style type="text/css">
	.st0{fill:#1D067C;stroke:#1D067C;stroke-width:1.0251;stroke-miterlimit:10;}
</style>
<g>
	<g>
		<g>
			<g>
				<path class="st0" d="M22.8,33c-0.1,0-0.2,0-0.3-0.1l-10.9-4.9c-0.2-0.1-0.4-0.3-0.4-0.6l0-12.2c0-0.2,0.1-0.4,0.3-0.5
					c0.2-0.1,0.4-0.1,0.6-0.1L23,18.4c0.3,0.1,0.4,0.3,0.4,0.6l0,13.4c0,0.2-0.1,0.4-0.3,0.5C23,33,22.9,33,22.8,33z M12.4,27.1
					l9.7,4.3l0-12l-9.7-3.3L12.4,27.1z"/>
			</g>
			<g>
				<path class="st0" d="M22.8,19.7c-0.1,0-0.1,0-0.2,0l-10.9-3.8c-0.2-0.1-0.4-0.3-0.4-0.6c0-0.3,0.2-0.5,0.4-0.6l9.3-3.5
					c0.1,0,0.3-0.1,0.4,0l11.5,3.5c0.3,0.1,0.4,0.3,0.4,0.6c0,0.3-0.2,0.5-0.4,0.6L23,19.6C22.9,19.6,22.8,19.7,22.8,19.7z
					 M13.7,15.2l9.1,3.1l8-3.1l-9.6-2.9L13.7,15.2z"/>
			</g>
			<g>
				<path class="st0" d="M22.8,33c-0.1,0-0.2,0-0.3-0.1c-0.2-0.1-0.3-0.3-0.3-0.5c0,0,0.2-13.9,0.4-14l9.9-3.8
					c0.2-0.1,0.4,0,0.6,0.1c0.2,0.1,0.3,0.3,0.3,0.5l0,12.2c0,0.2-0.1,0.5-0.3,0.6L23,33C22.9,33,22.8,33,22.8,33z M23.4,19.5
					l0,11.9l8.7-4.3l0-10.9L23.4,19.5z"/>
			</g>
		</g>
	</g>
</g>
</svg>
