<?xml version="1.0" encoding="utf-8"?>
<!-- Generator: Adobe Illustrator 24.0.0, SVG Export Plug-In . SVG Version: 6.00 Build 0)  -->
<svg version="1.1" id="Layer_1" xmlns="http://www.w3.org/2000/svg" xmlns:xlink="http://www.w3.org/1999/xlink" x="0px" y="0px"
	 viewBox="0 0 80 80" style="enable-background:new 0 0 80 80;" xml:space="preserve">
<style type="text/css">
	.st0{fill:#1D067C;}
	.st1{font-family:'Bungee-Regular';}
	.st2{font-size:16.2377px;}
	.st3{fill:none;stroke:#1D067C;stroke-width:4;stroke-linecap:round;stroke-miterlimit:10;}
	.st4{fill:#FCCC0F;stroke:#FEC20F;stroke-miterlimit:10;}
</style>
<g>
	<text transform="matrix(1 0 0 1 24.6714 42.261)" class="st0 st1 st2">10</text>
	<g>
		<circle class="st3" cx="40.5" cy="40.5" r="32.5"/>
		<g>
			<g>
				<g>
					<path class="st0" d="M58.5,52.1H23c-1.8,0-3.4-1.5-3.4-3.4V27.5c0-1.8,1.5-3.4,3.4-3.4h24c1.8,0,3.4,1.5,3.4,3.4v12.8h8.2
						c1.8,0,3.4,1.5,3.4,3.4v5.2C61.8,50.6,60.3,52.1,58.5,52.1z M23,27c-0.2,0-0.5,0.2-0.5,0.5v21.3c0,0.2,0.2,0.5,0.5,0.5h35.5
						c0.2,0,0.5-0.2,0.5-0.5v-5.2c0-0.2-0.2-0.5-0.5-0.5h-9.6c-0.8,0-1.5-0.6-1.5-1.5V27.5c0-0.2-0.2-0.5-0.5-0.5H23z"/>
				</g>
				<g>
					<circle class="st4" cx="30.5" cy="51" r="4.6"/>
				</g>
				<g>
					<path class="st0" d="M30.5,56.3c-2.9,0-5.3-2.4-5.3-5.3s2.4-5.3,5.3-5.3s5.3,2.4,5.3,5.3S33.5,56.3,30.5,56.3z M30.5,47.2
						c-2.1,0-3.8,1.7-3.8,3.8c0,2.1,1.7,3.8,3.8,3.8c2.1,0,3.8-1.7,3.8-3.8C34.4,48.9,32.7,47.2,30.5,47.2z"/>
				</g>
				<g>
					<circle class="st4" cx="47.5" cy="51" r="4.6"/>
				</g>
				<g>
					<path class="st0" d="M47.5,56.3c-2.9,0-5.3-2.4-5.3-5.3s2.4-5.3,5.3-5.3s5.3,2.4,5.3,5.3S50.5,56.3,47.5,56.3z M47.5,47.2
						c-2.1,0-3.8,1.7-3.8,3.8c0,2.1,1.7,3.8,3.8,3.8s3.8-1.7,3.8-3.8C51.4,48.9,49.7,47.2,47.5,47.2z"/>
				</g>
				<g>
					<path class="st0" d="M60.4,44.2c-0.4,0-0.8-0.2-1.1-0.5l-5.6-6.9h-4.8c-0.8,0-1.5-0.6-1.5-1.5c0-0.8,0.6-1.5,1.5-1.5h5.5
						c0.4,0,0.8,0.2,1.1,0.5l6,7.4c0.5,0.6,0.4,1.5-0.2,2C61,44.1,60.7,44.2,60.4,44.2z"/>
				</g>
			</g>
		</g>
	</g>
</g>
</svg>
