<?xml version="1.0" encoding="utf-8"?>
<!-- Generator: Adobe Illustrator 24.0.0, SVG Export Plug-In . SVG Version: 6.00 Build 0)  -->
<svg version="1.1" id="Layer_1" xmlns="http://www.w3.org/2000/svg" xmlns:xlink="http://www.w3.org/1999/xlink" x="0px" y="0px"
	 viewBox="0 0 67 40" style="enable-background:new 0 0 67 40;" xml:space="preserve">
<style type="text/css">
	.st0{fill:#FFFFFF;}
	.st1{fill:none;stroke:#FFFFFF;stroke-width:2.4707;stroke-miterlimit:10;}
</style>
<g>
	<g>
		<path class="st0" d="M27.1,29.8c-5,0-10,0-15.1,0c0.1-2.6,1.1-4.7,3.3-6.2c2.5-1.7,5.2-1.8,7.9-0.4C25.8,24.6,27,26.9,27.1,29.8z"
			/>
		<path class="st0" d="M19.6,11.5c2.5,0,4.5,2,4.5,4.5c0,2.5-2,4.6-4.5,4.6c-2.5,0-4.5-2-4.5-4.5C15,13.5,17.1,11.5,19.6,11.5z"/>
	</g>
	<g>
		<path class="st0" d="M33.9,21.9c0,0.7-0.1,1.3-0.4,1.6c-0.3,0.3-0.7,0.5-1.2,0.5c-0.4,0-0.7-0.1-0.9-0.2c-0.2-0.1-0.4-0.3-0.5-0.6
			c-0.1-0.3-0.2-0.7-0.2-1.2l0-5.2c-0.4,0-0.8-0.1-1.1-0.2c-0.3-0.2-0.4-0.4-0.4-0.8c0-0.3,0.1-0.6,0.4-0.8c0.3-0.2,0.6-0.3,1.1-0.3
			c0.2,0,0.4,0,0.8,0c0.3,0,0.6,0,0.7,0c0.7,0,1.1,0.1,1.4,0.3c0.2,0.2,0.4,0.6,0.4,1.2L33.9,21.9z"/>
		<path class="st0" d="M40.1,23.5c-0.2-0.3-0.4-0.8-0.4-1.6c-1.4,0-2.2,0-2.6,0c-0.6,0-1-0.1-1.3-0.4s-0.4-0.7-0.4-1.1
			c0-0.5,0.1-0.9,0.4-1.3c0.5-0.8,1.2-1.9,2.2-3.3c0.5-0.7,1.1-1.1,2-1.1c0.2,0,0.4,0,0.6,0c0.2,0,0.4,0,0.6,0
			c0.7,0,1.1,0.1,1.4,0.3c0.2,0.2,0.4,0.6,0.4,1.2v3.7c0.3,0,0.5,0.1,0.6,0.2s0.3,0.2,0.3,0.3c0.1,0.1,0.1,0.3,0.1,0.6
			c0,0.4-0.1,0.6-0.2,0.7c-0.2,0.1-0.4,0.2-0.8,0.2c0,0.7-0.1,1.3-0.4,1.6c-0.3,0.3-0.7,0.5-1.2,0.5C40.8,23.9,40.4,23.8,40.1,23.5z
			 M39.8,17L37.9,20h1.8L39.8,17z"/>
		<path class="st0" d="M48.9,22h-0.5c0,0.5-0.1,0.9-0.4,1.3c-0.3,0.4-0.6,0.6-1.1,0.6c-0.5,0-0.9-0.1-1.1-0.4
			c-0.2-0.3-0.4-0.8-0.4-1.5v-5.7c0-0.4,0.1-0.7,0.2-1c0.1-0.2,0.3-0.4,0.5-0.5c0.2-0.1,0.5-0.2,0.8-0.2c0.6,0,1,0.2,1.1,0.6
			c0.2,0.4,0.3,1,0.3,2c0,0.7,0,1.4-0.1,1.9c0.1,0.2,0.3,0.3,0.6,0.3c0.2,0,0.4,0,0.4-0.1c0.1-0.1,0.1-0.3,0.1-0.6
			c0-0.4,0.1-0.7,0.3-0.9c0.2-0.2,0.6-0.3,1.2-0.3c0.6,0,1,0.1,1.2,0.3c0.2,0.2,0.3,0.6,0.3,1.1c0,0.6-0.2,1-0.5,1.3
			c-0.3,0.3-0.7,0.5-1.1,0.5c0.4,0,0.8,0.1,1.2,0.4c0.3,0.3,0.5,0.7,0.5,1.2c0,0.7-0.1,1.2-0.3,1.4c-0.2,0.2-0.6,0.3-1.2,0.3
			c-0.5,0-0.9-0.1-1.2-0.3c-0.2-0.2-0.3-0.5-0.3-0.9c0-0.2,0-0.4-0.1-0.5c0-0.1-0.1-0.2-0.1-0.2C49.1,22,49,22,48.9,22z"/>
	</g>
	<path class="st1" d="M57.4,12.7l-6.7-7.7H7.3c-0.5,0-1,0.4-1,1v28.7c0,0.5,0.4,1,1,1h43.5l6.7-7.7l6.7-7.7L57.4,12.7z"/>
</g>
</svg>
