<?xml version="1.0" encoding="utf-8"?>
<!-- Generator: Adobe Illustrator 24.0.0, SVG Export Plug-In . SVG Version: 6.00 Build 0)  -->
<svg version="1.1" id="Layer_1" xmlns="http://www.w3.org/2000/svg" xmlns:xlink="http://www.w3.org/1999/xlink" x="0px" y="0px"
	 viewBox="0 0 67 40" style="enable-background:new 0 0 67 40;" xml:space="preserve">
<style type="text/css">
	.st0{fill:#FFFFFF;}
	.st1{fill:none;stroke:#FFFFFF;stroke-width:2.4707;stroke-miterlimit:10;}
</style>
<g>
	<g>
		<path class="st0" d="M26.4,24.3c-0.6,0-1.1-0.1-1.6-0.2c-0.5-0.2-0.9-0.4-1.3-0.8c-0.4-0.4-0.7-0.8-0.9-1.4
			c-0.2-0.6-0.3-1.3-0.3-2.1c0-0.9,0.1-1.6,0.3-2.3c0.2-0.6,0.5-1.1,0.9-1.5c0.4-0.4,0.8-0.6,1.3-0.8c0.5-0.2,1-0.2,1.6-0.2
			c0.6,0,1.1,0.1,1.6,0.3c0.5,0.2,0.9,0.5,1.3,0.8c0.4,0.4,0.6,0.9,0.8,1.5s0.3,1.3,0.3,2.2c0,0.8-0.1,1.5-0.3,2.2
			c-0.2,0.6-0.5,1.1-0.9,1.4c-0.4,0.4-0.8,0.6-1.3,0.8C27.5,24.2,27,24.3,26.4,24.3z M27.2,21.5c0.2-0.5,0.2-1.1,0.2-1.8
			c0-0.7-0.1-1.3-0.3-1.9C27,17.2,26.8,17,26.4,17c-0.2,0-0.4,0.1-0.6,0.4c-0.2,0.3-0.3,0.6-0.4,1c-0.1,0.4-0.1,0.8-0.1,1.3
			c0,0.7,0.1,1.3,0.3,1.8c0.2,0.5,0.4,0.8,0.8,0.8S27,22,27.2,21.5z"/>
		<path class="st0" d="M36.7,19.4h2c0.4,0,0.6,0.1,0.7,0.2c0.1,0.1,0.2,0.3,0.2,0.5c0,0.2,0,0.3-0.1,0.4c-0.1,0.1-0.2,0.2-0.3,0.2
			c-0.1,0-0.3,0.1-0.6,0.1h-1.5c0.4,0.5,0.9,0.8,1.6,0.8c0.4,0,0.8,0,1.1-0.1c0.4-0.1,0.7-0.2,0.9-0.3c0.3-0.1,0.5-0.1,0.6-0.1
			c0.2,0,0.4,0.1,0.5,0.2c0.1,0.2,0.2,0.3,0.2,0.5c0,0.2-0.1,0.4-0.3,0.7c-0.2,0.2-0.4,0.5-0.8,0.8c-0.3,0.3-0.8,0.5-1.3,0.7
			c-0.6,0.2-1.2,0.3-1.8,0.3c-1.1,0-2.1-0.3-3-0.9c-0.9-0.6-1.4-1.4-1.8-2.4h-0.6c-0.6,0-0.9-0.2-0.9-0.7c0-0.2,0.1-0.4,0.2-0.5
			c0.1-0.1,0.4-0.2,0.7-0.2H33v-0.8h-0.3c-0.6,0-0.9-0.2-0.9-0.7c0-0.1,0-0.3,0.1-0.4s0.1-0.2,0.3-0.3c0.1-0.1,0.3-0.1,0.6-0.1h0.5
			c0.3-1,0.9-1.9,1.8-2.5c0.9-0.6,1.9-0.9,3-0.9c0.4,0,0.7,0,1.1,0.1c0.4,0.1,0.7,0.1,0.9,0.2c0.3,0.1,0.5,0.2,0.8,0.4
			c0.2,0.1,0.4,0.3,0.6,0.4c0.2,0.1,0.3,0.3,0.4,0.4c0.1,0.1,0.2,0.3,0.3,0.4c0.1,0.1,0.1,0.2,0.1,0.3c0,0.2-0.1,0.4-0.2,0.5
			c-0.1,0.2-0.3,0.2-0.5,0.2c-0.2,0-0.4,0-0.6-0.1s-0.6-0.2-0.9-0.3c-0.4-0.1-0.7-0.1-1.1-0.1c-0.7,0-1.2,0.3-1.6,0.8h1.5
			c0.4,0,0.6,0.1,0.7,0.2c0.1,0.1,0.2,0.3,0.2,0.5c0,0.2,0,0.3-0.1,0.4c-0.1,0.1-0.2,0.2-0.3,0.2c-0.1,0-0.3,0.1-0.6,0.1h-2V19.4z"
			/>
	</g>
	<path class="st1" d="M57.4,12.7l-6.7-7.7H7.3c-0.5,0-1,0.4-1,1v28.7c0,0.5,0.4,1,1,1h43.5l6.7-7.7l6.7-7.7L57.4,12.7z"/>
</g>
</svg>
