<?xml version="1.0" encoding="utf-8"?>
<!-- Generator: Adobe Illustrator 24.0.0, SVG Export Plug-In . SVG Version: 6.00 Build 0)  -->
<svg version="1.1" id="Layer_1" xmlns="http://www.w3.org/2000/svg" xmlns:xlink="http://www.w3.org/1999/xlink" x="0px" y="0px"
	 viewBox="0 0 67 40" style="enable-background:new 0 0 67 40;" xml:space="preserve">
<style type="text/css">
	.st0{fill:#FFFFFF;}
	.st1{fill:none;stroke:#FFFFFF;stroke-width:2.4707;stroke-miterlimit:10;}
</style>
<g>
	<g>
		<path class="st0" d="M40.6,22.1c0,0.7-0.1,1.3-0.4,1.6C40,24,39.6,24.2,39,24.2c-0.4,0-0.7-0.1-0.9-0.2c-0.2-0.1-0.4-0.3-0.5-0.6
			c-0.1-0.3-0.2-0.7-0.2-1.2l0-5.2c-0.4,0-0.8-0.1-1.1-0.2c-0.3-0.2-0.4-0.4-0.4-0.8c0-0.3,0.1-0.6,0.4-0.8c0.3-0.2,0.6-0.3,1.1-0.3
			c0.2,0,0.4,0,0.8,0c0.3,0,0.6,0,0.7,0c0.7,0,1.1,0.1,1.4,0.3c0.2,0.2,0.4,0.6,0.4,1.2L40.6,22.1z"/>
		<path class="st0" d="M46.3,24.3c-0.6,0-1.1-0.1-1.6-0.2c-0.5-0.2-0.9-0.4-1.3-0.8c-0.4-0.4-0.7-0.8-0.9-1.4s-0.3-1.3-0.3-2.1
			c0-0.9,0.1-1.6,0.3-2.3c0.2-0.6,0.5-1.1,0.9-1.5c0.4-0.4,0.8-0.6,1.3-0.8c0.5-0.2,1-0.2,1.6-0.2c0.6,0,1.1,0.1,1.6,0.3
			c0.5,0.2,0.9,0.5,1.3,0.8c0.4,0.4,0.6,0.9,0.8,1.5s0.3,1.3,0.3,2.2c0,0.8-0.1,1.5-0.3,2.2c-0.2,0.6-0.5,1.1-0.9,1.4
			c-0.4,0.4-0.8,0.6-1.3,0.8C47.4,24.2,46.9,24.3,46.3,24.3z M47.1,21.5c0.2-0.5,0.2-1.1,0.2-1.8c0-0.7-0.1-1.3-0.3-1.9
			c-0.2-0.5-0.4-0.8-0.7-0.8c-0.2,0-0.4,0.1-0.6,0.4c-0.2,0.3-0.3,0.6-0.4,1s-0.1,0.8-0.1,1.3c0,0.7,0.1,1.3,0.3,1.8
			c0.2,0.5,0.4,0.8,0.8,0.8S46.9,22,47.1,21.5z"/>
	</g>
	<path class="st1" d="M57.4,12.7l-6.7-7.7H7.3c-0.5,0-1,0.4-1,1v28.7c0,0.5,0.4,1,1,1h43.5l6.7-7.7l6.7-7.7L57.4,12.7z"/>
	<path class="st0" d="M16.7,27.8c0.2-1.4,0.4-2.8,0.7-4.1c0.2-1.1-0.1-2.1-1-2.8c-0.9-0.9-1.8-1.8-2.8-2.7c-0.3-0.3-0.5-0.6-0.4-1
		c0.1-0.5,0.5-0.5,0.9-0.6c1.3-0.2,2.5-0.4,3.8-0.5c1.2-0.2,2-0.7,2.5-1.8c0.6-1.2,1.1-2.3,1.7-3.5c0.2-0.4,0.4-0.7,0.8-0.6
		c0.4,0,0.7,0.3,0.8,0.6c0.6,1.2,1.2,2.4,1.7,3.5c0.5,1,1.3,1.6,2.4,1.7c1.3,0.2,2.5,0.4,3.8,0.5c0.4,0.1,0.8,0.1,0.9,0.6
		c0.1,0.4-0.1,0.7-0.4,1c-0.9,0.9-1.9,1.8-2.8,2.8c-0.8,0.8-1.1,1.7-0.9,2.8c0.2,1.3,0.4,2.6,0.7,3.9c0.1,0.4,0.1,0.8-0.3,1
		c-0.4,0.3-0.7,0.1-1.1,0c-1.2-0.6-2.3-1.2-3.5-1.8c-1-0.5-1.9-0.5-2.9,0c-1.2,0.6-2.4,1.3-3.6,1.9C17.2,29,16.6,28.6,16.7,27.8z"/>
</g>
</svg>
